<?xml version="1.0" encoding="utf-8"?>
<!-- Generator: Adobe Illustrator 17.1.0, SVG Export Plug-In . SVG Version: 6.00 Build 0)  -->
<!DOCTYPE svg PUBLIC "-//W3C//DTD SVG 1.1//EN" "http://www.w3.org/Graphics/SVG/1.1/DTD/svg11.dtd">
<svg version="1.1" id="suntory_logo" xmlns="http://www.w3.org/2000/svg" xmlns:xlink="http://www.w3.org/1999/xlink" x="0px"
	 y="0px" viewBox="0 0 595.4 148.7" enable-background="new 0 0 595.4 148.7" xml:space="preserve">
<path fill="#63C7C7" d="M91.3,18.4c-3.8-3.6-10.6-5.5-17.8-5.5c-4.9,0-11.2,0.9-11.2,6.6c0,4.4,4.9,6.3,12.7,9.2
	c8.7,3.4,19,7.5,19,19.9C94,68.3,73,70.8,63.2,70.8c-5.5,0-11.5-0.4-16.2-1.7c-4.5-1.3-5.5-3.4-5.5-9.4v-7.3
	c4.9,3.6,13.1,5.4,19.7,5.4c8.2,0,12-2.4,12-7.3c0-4.7-4.4-6.6-15.6-11C50.3,36.3,42,32.3,42,20.9C42,4.3,61,0,72.4,0
	c6.8,0,12.4,1.3,15.9,2.8c3,1.5,3.4,3.4,3.4,7.3L91.3,18.4L91.3,18.4z M151.6,2.7h21.2c-0.9,6.8-1.1,17.8-1.1,28.2v9.4
	c0,10.6,0.4,22.2,1.5,28.2h-12c-4.5,0-6.8-1.5-7.5-4.5c-5.8,4.4-12,6-18.4,6c-22.7,0-25.8-13.7-25.8-23.7V28
	c0-10.4-0.4-19.7-1.3-25.2h12.7c5.8,0,8.5,3.6,8.5,9.4V39c0,10.6,1.1,18.8,14.1,18.8c3,0,6-0.4,8.5-1.5v-24
	C152.3,24,152.1,9.5,151.6,2.7 M214.4,68.7h-21.2c0.9-6.8,1.1-17.8,1.1-28.2V31c0-10.6-0.2-22.2-1.5-28.2h12c4.5,0,6.8,1.5,7.5,4.5
	c6-4.4,12.1-6,18.4-6c22.7,0,25.8,13.7,25.8,23.7v18.4c0,10.4,0.4,19.7,1.3,25.2h-12.7c-5.8,0-8.5-3.6-8.5-9.4V32.6
	c0-10.6-1.1-18.8-14.1-18.8c-3,0-6,0.4-8.5,1.5V39C213.5,47.4,213.5,61.8,214.4,68.7"/>
<path fill="#63C7C7" d="M317.4,2.7c3.6,0,9.2-0.2,11.8-0.9c-0.4,2.1-2.1,7.3-3,9.6c-1.7,3.6-4,4.9-12.9,4.9h-7.5v22.5
	c0,8.3,0.2,22.7,1.1,29.6h-21.4c0.9-6.8,1.1-21.2,1.1-29.6V16.7H280c-5.8,0-11,0.9-13.2,2.4V12c0-5.8,1.1-9.4,9.4-9.4L317.4,2.7
	L317.4,2.7z M400.6,35.1c0,22-12.7,35.5-35.3,35.5c-22.6,0-34.6-12.1-34.6-34.6c0-22.2,12.4-35.1,35.1-35.1
	C388.6,0.8,400.6,12.8,400.6,35.1 M350.1,35.3c0,15.1,5.4,22,15.6,22c10.1,0,15.1-6.8,15.1-22s-4.9-22.2-15.1-22.2
	C355.5,13.1,350.1,20,350.1,35.3"/>
<path fill="#63C7C7" d="M470.8,72.5c-8.2,0-9.9-3-15-10.4c-2.8-4-11.5-19-13.1-22c-0.9-1.5-1.1-2.8,0.4-3.6c6.6-3.8,8.2-8,8.2-12.4
	c0-5.4-2.1-9.9-9.6-9.9c-2.4,0-4.4,0.2-5.8,0.9v24c0,8.3,0.2,22.7,1.1,29.6h-20.8c0.9-6.6,1.1-17.8,1.1-28.2v-9.6
	c0-10.6-0.2-22.2-1.5-28.2c9.9,0,23.1-0.4,29.3-0.4c11.2,0,25.9,2.4,25.9,19c0,6.8-3,12.4-8.5,15.9c-1.1,0.9-1.1,1.3,0,2.8
	c7.1,10.6,15.6,22.5,23.5,30.8C482.7,71.6,475.4,72.5,470.8,72.5 M524.6,49.6v1.5c0,4.9,0.2,13.2,1.1,17.8h-21.4
	c0.9-4.4,1.1-12.9,1.1-17.8v-1.5c0-2.8-0.9-5.5-3-10.1c-4.7-9.6-15.3-28-24.6-36.4c3.6-0.4,10.1-0.9,14.1-0.9c8.3,0,11,2.8,12.9,6
	c1.7,2.8,8.7,16.7,11.2,22.5c2.8-6.6,8.3-18.1,11-22.2c2.1-3,4.7-6.3,11.8-6.3c3.4,0,8.5,0.2,12.7,0.9c-6.6,5.8-19,26.3-24,35.5
	C524.8,43.2,524.6,45.5,524.6,49.6"/>
<rect x="41.9" y="0" fill="none" width="509" height="72.5"/>
<g>
	<path fill="#63C7C7" d="M19.5,139.6c0,2.6-1.1,4.7-3.2,6.4c-2.1,1.7-4.4,2.6-7.1,2.6S3.4,148,0,146.8c0-0.6,0-1.5,0-2.8
		c0-1.3,0.2-3.2,0.4-5.8c0.9,0,1.7,0,2.4,0.2v0.2c0,4.5,2.1,6.8,6.4,6.8c1.5,0,2.6-0.4,3.6-1.1c0.9-0.6,1.3-1.7,1.3-3
		s-0.4-2.4-1.5-3.4c-0.9-1.1-2.1-1.7-3.4-2.6c-1.3-0.9-2.8-1.5-4-2.1c-1.3-0.9-2.6-1.9-3.4-3.2c-0.9-1.3-1.5-3-1.5-4.7
		c0-2.6,0.9-4.5,2.8-6c1.9-1.5,4-2.1,6.8-2.1s5.5,0.4,8.3,1.3c0,2.1-0.2,4.7-0.6,7.3c-0.6,0-1.3,0-1.9-0.2c-0.4-3.8-2.4-5.8-5.5-5.8
		c-1.5,0-2.6,0.4-3.4,1.1c-0.9,0.6-1.5,1.9-1.5,3c0,1.1,0.4,2.4,1.5,3.2c1.1,0.9,2.1,1.7,3.6,2.4c1.5,0.6,2.8,1.3,4.4,2.1
		c1.5,0.6,2.6,1.7,3.6,3.2C19,136.2,19.5,137.9,19.5,139.6z"/>
	<path fill="#63C7C7" d="M52.6,118c0,0.2,0,0.4,0,0.9c0,0.4,0,0.9-0.2,1.3c-1.1,0.2-1.7,0.4-2.4,0.6c-0.4,0.4-0.6,1.1-0.6,1.9v15.6
		c0,3.4-1.1,6-3.2,7.7c-2.1,1.7-5.2,2.4-8.7,2.4c-3.6,0-6.6-0.9-8.7-2.4c-2.1-1.5-3.2-4.4-3.2-7.7v-17.6c-0.9-0.4-1.9-0.6-3.2-0.6
		c0-0.2,0-0.4,0-0.6c0-0.2,0-0.9,0.2-1.5h12.1c0,0.2,0,0.4,0,0.9c0,0.4,0,0.9-0.2,1.3c-1.1,0.2-1.7,0.4-2.1,0.6
		c-0.9,0.4-1.1,1.1-1.1,1.9v15.6c0,4.7,1.9,7.1,6,7.1s6-2.4,6-7.1v-17.8c-0.9-0.4-1.9-0.6-3.2-0.6c0-0.9,0-1.7,0.2-2.1h12.4v0.2
		L52.6,118L52.6,118z"/>
	<path fill="#63C7C7" d="M85.3,118c0,1.1,0,1.7-0.2,2.1c-2.1,0.2-3,1.1-3,2.8v25h-2.6l-14.8-19.5l-2.8-4v20.8
		c0.9,0.4,1.9,0.6,3.4,0.6c0,0.2,0,0.4,0,0.9c0,0.4,0,0.9-0.2,1.3h-9.7c0-0.2,0-0.4,0-0.9c0-0.4,0-0.9,0.2-1.3
		c1.1-0.2,1.7-0.4,2.4-0.9c0.4-0.4,0.9-1.1,0.9-1.9v-22.5c-0.9-0.2-1.9-0.4-3.4-0.4c0-1.1,0.2-1.7,0.2-2.1h8.7L76,133.1l3,4.5v-16.9
		c-0.9-0.4-2.1-0.6-3.4-0.6c0-0.2,0-0.4,0-0.6c0-0.1,0-0.9,0.2-1.5H85.3L85.3,118z"/>
	<path fill="#63C7C7" d="M112.3,118c0.2,1.3,0.2,2.6,0.2,3.8c0,1.3,0,2.4,0,3.4c-0.4,0.2-1.1,0.2-1.9,0.2c-0.2-1.9-0.6-3.2-1.3-4
		c-0.6-0.9-1.7-1.1-3-1.1h-3.4v24.6c1.1,0.4,2.4,0.6,3.6,0.6c0,0.2,0,0.4,0,0.6c0,0.1,0,0.9-0.2,1.5H93.2c0-0.2,0-0.4,0-0.9
		c0-0.4,0-0.9,0.2-1.3c1.3-0.2,2.1-0.4,2.6-0.9c0.4-0.4,0.9-0.9,0.9-1.9v-22.2h-3.2c-1.3,0-2.4,0.4-3,1.1c-0.6,0.9-1.1,2.1-1.1,4
		c-1.1,0-1.7,0-2.1-0.2c0-1.1-0.2-2.1-0.2-3.4c0-1.3,0-2.6,0.2-4C87.5,118,112.3,118,112.3,118z"/>
	<path fill="#63C7C7" d="M138.7,144.4c-2.6,2.8-6,4.4-10.1,4.4c-4,0-7.5-1.5-10.1-4.4c-2.6-2.8-3.8-6.6-3.8-11.2
		c0-4.7,1.3-8.3,3.8-11.3c2.6-3,5.8-4.4,10.1-4.4c4,0,7.5,1.5,10.1,4.4c2.6,3,3.8,6.6,3.8,11.3C142.5,137.6,141.1,141.6,138.7,144.4
		z M135.4,133.7c0-9-2.4-13.7-7.1-13.7c-4.4,0-6.4,4.4-6.4,12.7c0,4.7,0.6,8.3,1.9,10.2c1.3,2.1,3,3.2,5.2,3.2
		C133.3,146,135.4,142,135.4,133.7z"/>
	<path fill="#63C7C7" d="M173.7,145.6c0,0.9,0,1.7-0.2,2.4h-7.7l-5.8-11.8c-0.2-0.6-0.6-1.1-1.1-1.5c-0.4-0.4-0.9-0.4-1.7-0.4H155
		v10.6c1.3,0.4,2.6,0.9,3.8,0.9c0,0.2,0,0.4,0,0.9c0,0.4,0,0.9-0.2,1.3h-12.9c0-0.2,0-0.4,0-0.9c0-0.4,0-0.9,0.2-1.3
		c1.1-0.2,1.7-0.4,2.4-0.9c0.4-0.4,0.6-0.9,0.6-1.9v-22.2c-1.1-0.4-2.1-0.6-3.4-0.6c0-0.9,0-1.7,0.2-2.1h13.2c3.4,0,6,0.6,8,2.1
		c1.9,1.5,2.8,3.4,2.8,6c0,1.9-0.4,3.4-1.5,4.7c-1.1,1.3-2.6,2.1-4.5,2.8c0.9,0.4,1.7,1.5,2.6,3l3.2,6.3c0.6,1.1,1.1,1.9,1.7,2.1
		C171.9,145.4,172.8,145.6,173.7,145.6z M155.2,131.8h3.2c1.7,0,3.2-0.4,4-1.5c0.9-0.9,1.5-2.4,1.5-4.4c0-1.9-0.4-3.2-1.5-4.4
		c-0.9-1.1-2.4-1.5-4-1.5h-3.2V131.8z"/>
	<path fill="#63C7C7" d="M187.4,120.2c-1.9,0.2-3,0.6-3,1.7c0,0.4,0.2,0.9,0.4,1.3l5.5,10.1h0.2c0.2-1.1,0.9-2.1,1.5-3.4l5.5-9
		c-1.1-0.2-1.9-0.4-2.6-0.4c0-0.6,0-1.3,0.2-2.1h8.5c0,0.9-0.2,1.5-0.4,2.1c-1.1,0.2-1.7,0.4-2.1,0.9s-0.9,1.1-1.5,1.9L192,136v9.6
		c0.9,0.2,2.1,0.4,3.6,0.4c0,0.9,0,1.5-0.2,2.1h-13.2c0-0.2,0-0.4,0-0.9c0-0.4,0-0.9,0.2-1.3c0.6-0.2,1.3-0.2,1.7-0.4
		c0.4-0.2,0.6-0.4,1.1-0.6c0.4-0.4,0.4-0.9,0.4-1.5v-7.7l-8.7-15c-0.9-0.2-1.7-0.4-2.6-0.4c-0.2-1.1-0.2-1.7-0.2-2.1h12.9
		C187.4,118.9,187.4,119.7,187.4,120.2z"/>
	<path fill="#63C7C7" d="M245.4,132.9c0,0.2,0,0.4,0,0.9c0,0.4,0,0.9-0.2,1.5c-1.1,0.2-1.7,0.4-2.1,0.6c-0.6,0.4-1.1,1.1-1.1,1.9
		v10.1h-3.2l-1.1-1.5c-2.1,1.3-4.7,1.9-7.3,1.9c-3.8,0-7.3-1.3-10.1-4c-2.8-2.8-4-6.4-4-11.2c0-4.8,1.5-8.5,4.7-11.5
		c3.2-3,6.8-4.5,11.3-4.5c3.4,0,6.6,0.4,9.6,1.5c0,2.6-0.4,5.2-1.1,7.5c-0.2,0-0.4,0-0.6,0s-0.6,0-1.3,0c-0.2-1.9-1.1-3.2-2.4-4.4
		c-1.3-1.1-2.8-1.5-4.7-1.5c-3,0-5.2,1.1-7.1,3.2c-1.7,2.1-2.6,5.2-2.6,9.2c0,4,0.9,7.1,2.4,9c1.5,1.9,3.8,3,6.4,3
		c1.7,0,3.4-0.4,4.9-1.3v-8.2c-1.1-0.4-2.4-0.6-3.8-0.6c0-0.9,0-1.7,0.2-2.4h13.1L245.4,132.9L245.4,132.9z"/>
	<path fill="#63C7C7" d="M256.4,145.6h7.5c1.1,0,2.1-0.2,2.8-0.9c0.4-0.4,0.6-1.1,0.9-1.9c0.2-0.9,0.2-1.7,0.2-2.6
		c0.9,0,1.5,0,2.1,0c0.2,2.1,0.4,3.8,0.4,5.2s0,2.1,0,2.6h-23.1c0-0.2,0-0.4,0-0.9c0-0.4,0-0.9,0.2-1.3c1.1-0.2,1.7-0.4,2.4-0.9
		c0.4-0.4,0.6-0.9,0.6-1.9v-22.2c-0.9-0.4-1.9-0.6-3.2-0.6c0-0.2,0-0.4,0-0.6c0-0.2,0-0.9,0.2-1.5h12.1c0,0.2,0,0.4,0,0.9
		c0,0.4,0,0.9-0.2,1.3c-1.1,0.2-1.7,0.4-2.1,0.6c-0.4,0.4-0.6,1.1-0.6,1.9v22.8L256.4,145.6L256.4,145.6z"/>
	<path fill="#63C7C7" d="M297.1,144.4c-2.6,2.8-6,4.4-10.1,4.4c-4,0-7.5-1.5-10.1-4.4c-2.6-2.8-3.8-6.6-3.8-11.2
		c0-4.7,1.3-8.3,3.8-11.3c2.6-3,5.8-4.4,10.1-4.4c4,0,7.5,1.5,10.1,4.4c2.6,3,3.8,6.6,3.8,11.3C300.9,137.6,299.7,141.6,297.1,144.4
		z M293.9,133.7c0-9-2.4-13.7-7.1-13.7c-4.4,0-6.4,4.4-6.4,12.7c0,4.7,0.6,8.3,1.9,10.2c1.3,2.1,3,3.2,5.2,3.2
		C291.8,146,293.9,142,293.9,133.7z"/>
	<path fill="#63C7C7" d="M316.2,118c4,0,7.3,0.6,9.2,2.1c1.9,1.5,3,3.4,3,5.8c0,2.8-1.5,4.9-4.4,6.3c1.7,0.4,3.2,1.5,4,2.8
		c0.9,1.3,1.5,2.8,1.5,4.7c0,2.6-1.1,4.5-3.2,6c-2.1,1.5-5.2,2.1-9.2,2.1h-12.7c0-0.2,0-0.4,0-0.9c0-0.4,0-0.9,0.2-1.3
		c1.1-0.2,1.7-0.4,2.4-0.9c0.4-0.4,0.6-0.9,0.6-1.9v-22c-0.9-0.4-1.9-0.6-3.2-0.6c0-0.2,0-0.4,0-0.6c0-0.1,0-0.9,0.2-1.5L316.2,118
		L316.2,118z M313.6,131.5h4.4c1.3-0.4,2.1-1.3,2.8-2.1c0.6-0.9,1.1-2.1,1.1-3.6s-0.4-2.8-1.5-3.6c-1.1-1.1-2.4-1.5-4.4-1.5h-2.4
		L313.6,131.5L313.6,131.5L313.6,131.5z M313.6,145.4h3.2c2.1,0,3.6-0.4,4.7-1.5c1.1-1.1,1.7-2.4,1.7-4.4c0-1.9-0.6-3.2-1.7-4.4
		s-2.8-1.5-4.7-1.5h-3.2V145.4z"/>
	<path fill="#63C7C7" d="M347.6,148c0-0.9,0-1.5,0.2-2.1c1.5-0.4,2.8-0.9,3.4-1.1l-2.1-6.8h-9.3l-2.4,7.5c0.9,0.4,2.1,0.6,3.6,0.6
		c0,0.9,0,1.5-0.2,2.1H331c0-0.9,0-1.5,0.2-2.1c1.7-0.4,2.8-1.3,3.4-3l8.2-24.8c1.5-0.2,3.4-0.4,5.8-0.6l8.2,25.4
		c0.4,1.1,0.9,1.7,1.3,2.1s1.3,0.6,2.4,0.6c0,0.9-0.2,1.7-0.2,2.1L347.6,148L347.6,148z M340.5,135.2h7.7l-3.8-12.9l-0.4,1.9
		L340.5,135.2z"/>
	<path fill="#63C7C7" d="M370.7,145.6h7.5c1.1,0,2.1-0.2,2.8-0.9c0.4-0.4,0.6-1.1,0.9-1.9c0.2-0.9,0.2-1.7,0.2-2.6
		c0.9,0,1.5,0,2.1,0c0.2,2.1,0.4,3.8,0.4,5.2s0,2.1,0,2.6H362c0-0.2,0-0.4,0-0.9c0-0.4,0-0.9,0.2-1.3c1.1-0.2,1.7-0.4,2.4-0.9
		c0.4-0.4,0.6-0.9,0.6-1.9v-22.2c-0.9-0.4-1.9-0.6-3.2-0.6c0-0.2,0-0.4,0-0.6c0-0.2,0-0.9,0.2-1.5h12.1c0,0.2,0,0.4,0,0.9
		c0,0.4,0,0.9-0.2,1.3c-1.1,0.2-1.7,0.4-2.1,0.6c-0.4,0.4-0.6,1.1-0.6,1.9v22.8L370.7,145.6L370.7,145.6z"/>
	<path fill="#63C7C7" d="M440.4,118c0,0.2,0,0.4,0,0.6c0,0.2,0,0.9,0,1.3c-0.9,0.2-1.5,0.4-1.9,0.9c-0.4,0.4-0.9,1.1-1.1,1.9
		l-8.5,25.2h-2.4L419,128l-8.5,19.9h-2.4l-9-27.1c-0.9-0.2-1.7-0.4-2.6-0.4c0-0.6-0.2-1.1-0.2-1.3s0-0.6,0-0.9h12.9
		c0.2,0.9,0.2,1.5,0.2,2.1c-1.5,0.2-2.4,0.4-2.8,0.6c-0.4,0.4-0.4,0.6-0.4,1.1c0,0.4,0,0.9,0.2,1.1l4.4,13.7c0.2,0.9,0.4,1.9,0.6,3
		h0.2l8.3-20h2.4l6.3,17c0.4,1.1,0.6,2.1,0.6,3h0.2l6-18.8c-1.1-0.4-1.9-0.6-2.8-0.6c0-0.6,0.2-1.5,0.2-2.1h7.7L440.4,118L440.4,118
		z"/>
	<path fill="#63C7C7" d="M450.8,145.4h7.1c1.5,0,2.6-0.4,3-1.3c0.4-0.9,0.9-2.4,1.1-4.5c1.3,0,2.1,0,2.6,0.2
		c0.2,1.9,0.2,3.4,0.2,4.7c0,1.3,0,2.6,0,3.4H442c0-0.2,0-0.4,0-0.9c0-0.4,0-0.9,0.2-1.3c1.1-0.2,1.7-0.4,2.4-0.9
		c0.4-0.4,0.6-0.9,0.6-1.9v-22.2c-0.9-0.4-1.9-0.6-3.4-0.6c0-0.9,0-1.7,0.2-2.1h22.5c0,0.6,0,1.7,0,3c0,1.3,0,3-0.2,4.7
		c-0.6,0-1.5,0-2.4,0c-0.2-2.6-0.6-4-1.1-4.5c-0.6-0.6-1.5-1.1-2.8-1.1h-6.8v11.2l6.8-0.4h1.9v3.4h-1.8l-6.8-0.4v11.5L450.8,145.4
		L450.8,145.4z"/>
	<path fill="#63C7C7" d="M479.4,118c4,0,7.3,0.6,9.2,2.1c1.9,1.5,3,3.4,3,5.8c0,2.8-1.5,4.9-4.4,6.3c1.7,0.4,3.2,1.5,4,2.8
		c0.9,1.3,1.5,2.8,1.5,4.7c0,2.6-1.1,4.5-3.2,6c-2.1,1.5-5.2,2.1-9.2,2.1h-12.7c0-0.2,0-0.4,0-0.9c0-0.4,0-0.9,0.2-1.3
		c1.1-0.2,1.7-0.4,2.4-0.9c0.4-0.4,0.6-0.9,0.6-1.9v-22c-0.9-0.4-1.9-0.6-3.2-0.6c0-0.2,0-0.4,0-0.6c0-0.1,0-0.9,0.2-1.5L479.4,118
		L479.4,118z M476.9,131.5h4.4c1.3-0.4,2.1-1.3,2.8-2.1c0.6-0.9,1.1-2.1,1.1-3.6s-0.4-2.8-1.5-3.6c-1.1-1.1-2.4-1.5-4.4-1.5h-2.6v11
		L476.9,131.5L476.9,131.5z M476.9,145.4h3.2c2.1,0,3.6-0.4,4.7-1.5c1.1-1.1,1.7-2.4,1.7-4.4c0-1.9-0.6-3.2-1.7-4.4
		c-1.1-1.1-2.8-1.5-4.7-1.5h-3.2V145.4z"/>
	<path fill="#63C7C7" d="M527.9,139.6c0,2.6-1.1,4.7-3.2,6.4c-2.1,1.7-4.5,2.4-7.1,2.4c-2.8,0-5.8-0.6-9.2-1.7c0-0.6,0-1.5,0-2.8
		c0-1.3,0.2-3.2,0.4-5.8c0.9,0,1.7,0,2.4,0.2v0.2c0,4.5,2.1,6.8,6.4,6.8c1.5,0,2.6-0.4,3.6-1.1c0.9-0.6,1.3-1.7,1.3-3
		s-0.4-2.4-1.5-3.4c-0.9-1.1-2.1-1.7-3.4-2.6c-1.3-0.6-2.8-1.5-4-2.1c-1.3-0.9-2.6-1.9-3.4-3.2c-0.9-1.3-1.5-3-1.5-4.7
		c0-2.6,0.9-4.5,2.8-6c1.9-1.6,4-2.1,6.8-2.1s5.5,0.4,8.3,1.3c0,2.1-0.2,4.7-0.6,7.3c-0.6,0-1.3,0-1.9-0.2c-0.6-3.8-2.4-5.8-5.5-5.8
		c-1.5,0-2.6,0.4-3.4,1.1c-0.9,0.6-1.3,1.7-1.3,2.8c0,1.1,0.4,2.4,1.5,3.2c1,0.9,2.1,1.7,3.6,2.4c1.5,0.6,2.8,1.3,4.4,2.1
		c1.5,0.6,2.6,1.7,3.6,3.2C527.4,136.2,527.9,137.9,527.9,139.6z"/>
	<path fill="#63C7C7" d="M540.3,122.8v22.5c0.9,0.4,1.9,0.6,3.2,0.6c0,0.2,0,0.4,0,0.6s0,0.9-0.2,1.5h-12.1c0-0.2,0-0.4,0-0.9
		c0-0.4,0-0.9,0.2-1.3c1.1-0.2,1.7-0.4,2.4-0.9c0.4-0.4,0.6-0.9,0.6-1.9v-22.2c-0.9-0.4-1.9-0.6-3.4-0.6c0-0.9,0-1.7,0.2-2.1h12.2
		c0,0.2,0,0.4,0,0.9c0,0.4,0,0.9-0.2,1.3c-1.1,0.2-1.7,0.4-2.1,0.6C540.5,121.2,540.3,122,540.3,122.8z"/>
	<path fill="#63C7C7" d="M570.2,118c0.2,1.3,0.2,2.6,0.2,3.8c0,1.3,0,2.4,0,3.4c-0.4,0.2-1.1,0.2-1.9,0.2c-0.2-1.9-0.6-3.2-1.3-4
		c-0.6-0.9-1.7-1.1-3-1.1h-3.4v24.6c1.1,0.4,2.4,0.6,3.6,0.6c0,0.2,0,0.4,0,0.6c0,0.1,0,0.9-0.2,1.5H551c0-0.2,0-0.4,0-0.9
		c0-0.4,0-0.9,0.2-1.3c1.3-0.2,2.1-0.4,2.6-0.9c0.4-0.4,0.9-0.9,0.9-1.9v-22.2h-3.2c-1.3,0-2.4,0.4-3,1.1c-0.6,0.9-1.1,2.1-1.1,4
		c-1.1,0-1.7,0-2.1-0.2c0-1.1-0.2-2.1-0.2-3.4c0-1.3,0-2.6,0.2-4C545.4,118,570.2,118,570.2,118z"/>
	<path fill="#63C7C7" d="M581.4,145.4h7.1c1.5,0,2.6-0.4,3-1.3c0.4-0.9,0.9-2.4,1.1-4.5c1.3,0,2.1,0,2.6,0.2
		c0.2,1.9,0.2,3.4,0.2,4.7c0,1.3,0,2.6,0,3.4h-22.8c0-0.2,0-0.4,0-0.9c0-0.4,0-0.9,0.2-1.3c1.1-0.2,1.7-0.4,2.4-0.9
		c0.4-0.4,0.6-0.9,0.6-1.9v-22.2c-0.9-0.4-1.9-0.6-3.4-0.6c0-0.9,0-1.7,0.2-2.1h22.5c0,0.6,0,1.7,0,3c0,1.3,0,3-0.2,4.7
		c-0.6,0-1.5,0-2.4,0c-0.2-2.6-0.6-4-1.1-4.5c-0.6-0.6-1.5-1.1-2.8-1.1h-6.8v11.2l6.8-0.4h1.9v3.4h-2l-6.8-0.4v11.5L581.4,145.4
		L581.4,145.4z"/>
</g>
</svg>
