<?xml version="1.0" encoding="utf-8"?>
<!-- Generator: Adobe Illustrator 21.1.0, SVG Export Plug-In . SVG Version: 6.00 Build 0)  -->
<svg version="1.1" id="Layer_1" xmlns="http://www.w3.org/2000/svg" xmlns:xlink="http://www.w3.org/1999/xlink" x="0px" y="0px"
	 viewBox="0 0 216 52" style="enable-background:new 0 0 216 52;" xml:space="preserve">
<style type="text/css">
	.st0{fill:#222221;}
</style>
<g>
	<g>
		<path class="st0" d="M53.2,19.5c-0.5,0-1.5,0-2,0.1c0.3,1.5,0.3,6,0.3,9.5c-1-1.2-2.2-2.6-3.9-4.5c-1.4-1.5-2.4-2.8-3.9-4.2
			c-0.7-0.7-0.9-0.7-1.9-0.7c-0.5,0-1.5,0.2-2.7,0.4c0,0.1,0,0.2,0,0.3c0.6,0,1,0.2,1.5,0.7c0.1,0.1,0.3,0.2,0.4,0.3
			c0.1,1.7,0.1,4,0.1,6c0,1.9-0.1,3.8-0.3,5.7c0.5,0,1.3-0.1,1.8-0.1c-0.2-1.6-0.2-3.9-0.2-6c0-1.3,0-2.9,0-4.2c1,1.1,2.3,2.4,3.7,4
			c1.1,1.2,3.7,4.1,5.3,6.3c0.5,0.1,1.1,0.1,1.4,0C52.7,28.9,52.7,22.4,53.2,19.5"/>
		<path class="st0" d="M15.5,24.6c-2-1.5-2.2-2.1-2.1-2.8c0.1-0.9,0.9-1.5,1.9-1.5c0.7,0,1.3,0.1,1.9,0.5c0.4,0.3,0.7,0.7,0.9,1.3
			c0.1,0,0.2,0,0.3,0c0.1-0.7,0.1-1.7,0.2-2.5c-0.9-0.1-1.7-0.2-2.7-0.2c-2.5,0-4.3,1.2-4.3,3.6c0,1.7,1.1,2.8,2.8,4.1
			c1.7,1.3,2.6,2,2.6,3.3c0,0.7-0.5,1.8-2.2,1.8c-0.9,0-1.7-0.2-2.3-0.7c-0.4-0.4-0.7-0.9-0.7-1.5c-0.1,0-0.2,0-0.3,0
			c-0.1,1-0.2,2-0.2,2.7c0.9,0.3,2.1,0.5,3,0.5c3.2,0,4.7-1.8,4.7-3.8C18.8,27.4,18,26.5,15.5,24.6"/>
		<path class="st0" d="M76.8,19c4.7,0,6.8,3.6,6.8,7c0,4.8-3.1,7.4-7.2,7.4c-4.6,0-7.1-3.6-7.1-7.3c0-2.4,1.2-5,3.6-6.2
			C74.1,19.3,75.4,19,76.8,19 M76,20c-2.3,0-4,1.9-4,5.2c0,4,2.4,7.2,5.1,7.2c2.1,0,3.9-1.7,3.9-5.1C81,22.9,78.9,20,76,20"/>
		<path class="st0" d="M100.4,32.6c-0.8,0-1.5-0.4-2.5-1.5c-1.7-1.9-2.9-3.6-3.7-4.8c1.4-1.1,2.2-2.5,2.2-3.8c0-2-1.5-3.1-4.1-3.1
			c-0.8,0-2.1,0.1-2.5,0.1c-0.7,0-1.8,0.1-2.8,0.1c0,0.1,0,0.2,0,0.3c0.5,0,0.6,0.4,0.7,1.7c0.1,1.2,0.2,3.5,0.2,4.7
			c0,2.2,0,4.6-0.2,6.6c0.7,0,1.9,0,2.7-0.1c-0.1-1.6-0.1-3.4-0.2-5.4c0.6,0,1.3,0,1.9,0c0.6,1,2,3.2,3.2,4.7
			c0.6,0.7,0.9,0.8,1.8,0.9c0.8,0.1,1.8,0,3-0.1C100.4,32.8,100.4,32.7,100.4,32.6 M92.8,26.5c-0.7,0.1-1.6,0.1-2.4,0.1
			c0-2.1,0-4.4,0-6.3c0.3,0,0.7,0,0.9,0c1.7,0.1,2.6,1,2.6,3C93.9,24.6,93.5,25.9,92.8,26.5 M94.2,26.4
			C94.2,26.4,94.2,26.4,94.2,26.4C94.3,26.4,94.3,26.4,94.2,26.4"/>
		<path class="st0" d="M112.7,19.2c-1,0-1.7,0.2-2.4,0.3c-0.5,0.1-0.9,0.4-1.2,0.8c-0.8,1.2-1.9,3.2-2.8,5c-0.9-1.7-2.4-4.1-3.7-5.5
			c-0.4-0.4-0.6-0.5-1.1-0.5c-0.8,0-1.8,0.3-2.8,0.4c0,0.1,0,0.2,0.1,0.3c0.5,0,0.9,0.2,1.3,0.6c0.7,0.7,1.4,1.6,2,2.4
			c1,1.3,1.8,2.8,2.5,4.1c0.1,1.7,0,3.9-0.1,5.7c0.7,0,2.1,0,2.8-0.1c-0.2-1.9-0.3-4.5-0.2-6.5c1.1-1.9,2.6-4.3,3.8-5.6
			c0.8-0.8,1.3-1.1,1.8-1.3C112.8,19.4,112.7,19.3,112.7,19.2"/>
		<path class="st0" d="M69.1,19.4c-0.9,0.3-2.1,0.3-3.4,0.3c-2.8,0-5.5-0.1-7.8,0c-0.5,0-0.9,0.1-1.2,0.5c-0.2,0.4-0.4,0.8-0.8,1.5
			c0,0.1,0.1,0.1,0.2,0.1c0.5-0.6,0.7-0.8,2.6-0.7c0.5,0,1.2,0,2,0c0.1,3.7,0,8-0.2,11.8c0.6,0,2.1,0,2.8,0c-0.2-3.7-0.2-8.1,0-11.8
			c0.9,0,1.7,0,2.4,0c0.7,0,1.3-0.1,1.8-0.3c0.5-0.3,1.2-0.8,1.7-1.2C69.1,19.5,69.1,19.4,69.1,19.4"/>
		<path class="st0" d="M35.9,32.5c-0.7,0-0.8-0.2-0.9-0.8c-0.2-1.4-0.2-3.2-0.2-5.6c0-2.5,0.1-4.8,0.2-6.5c-0.7,0-1.8,0-2.6,0.1
			c0,2.3,0,4.3,0,6.7c0,1.3,0,2.5,0,3.5c-1.1,1.4-2.2,2.1-3.4,2.1c-1.4,0-2.3-0.5-2.9-1.5c-0.5-0.8-0.6-1.9-0.6-3.3
			c0-2,0-5.4,0.1-7.6c-0.7,0-2.3,0.1-3.1,0.1c0,0.1,0,0.2,0,0.3c0.5,0,0.6,0.4,0.7,1.4c0.1,1.9,0.1,4.9,0.1,6.9c0,1.2,0.2,2.2,0.7,3
			c0.8,1.3,2.1,2,4.1,2c1.8,0,3.2-0.8,4.4-1.9c0,0.6,0,1.1,0.1,1.5c0.7,0,2.4,0,3.3,0C35.9,32.7,35.9,32.6,35.9,32.5"/>
		<path class="st0" d="M172.1,24.6c-2-1.5-2.2-2.1-2.1-2.8c0.1-0.9,0.9-1.5,1.9-1.5c0.7,0,1.3,0.1,1.9,0.5c0.4,0.3,0.7,0.7,0.9,1.3
			c0.1,0,0.2,0,0.3,0c0.1-0.7,0.1-1.7,0.1-2.5c-0.9-0.1-1.7-0.2-2.7-0.2c-2.5,0-4.3,1.2-4.3,3.6c0,1.7,1.1,2.8,2.8,4.1
			c1.7,1.3,2.6,2,2.6,3.3c0,0.7-0.5,1.8-2.3,1.8c-0.9,0-1.7-0.2-2.3-0.7c-0.4-0.4-0.7-0.9-0.7-1.5c-0.1,0-0.2,0-0.3,0
			c-0.1,1-0.2,2-0.2,2.7c0.9,0.3,2.1,0.5,3,0.5c3.1,0,4.7-1.8,4.7-3.8C175.4,27.4,174.6,26.5,172.1,24.6"/>
		<path class="st0" d="M163.1,19.6c-0.8,0-2.3,0-3.3,0.1c0,0.1,0,0.2,0,0.3c0.6,0.1,0.7,0.4,0.7,1.4c0.1,3.4,0.1,8.5-0.1,11.5
			c0.7,0,2,0,2.7,0C162.8,29,162.9,23.5,163.1,19.6"/>
		<path class="st0" d="M155.4,32.6c-0.8,0-0.8-0.3-0.8-1c-0.1-1.4-0.1-4.3-0.1-5.7c0-2.1,0.1-4.6,0.2-6.3c-0.8,0-1.8,0-2.7,0
			c0.1,1.2,0.1,3.3,0.1,5.6c-2,0.1-5.1,0.1-6.8,0.1c0-2,0.1-4,0.1-5.8c-0.8,0-2.3,0.1-3.1,0.1c0,0.1,0,0.2,0,0.3
			c0.6,0,0.6,0.6,0.7,1.6c0.1,1.3,0.1,2.8,0.1,4.4c0,2.4-0.1,4.9-0.2,7c0.7,0,1.8,0,2.6-0.1c-0.1-1.8-0.1-4-0.1-6.2
			c2-0.1,4.9-0.1,6.8,0c0,2.3-0.1,4.6-0.1,6.3c0.7,0,2.6,0,3.4,0C155.4,32.8,155.4,32.6,155.4,32.6"/>
		<path class="st0" d="M192.2,32.6c-0.8-0.1-1.4-0.5-2.1-1.1c-1.6-1.6-4.1-4.5-5.6-6.5c1-1.1,2.4-2.7,3.7-3.9c0.4-0.4,1-1,1.5-1.4
			c0-0.1,0-0.1,0-0.2c-0.8,0-1.9,0.1-2.4,0.1c-0.4,0.8-1.6,2.5-2.8,3.9c-0.6,0.7-1.3,1.4-1.9,2.1c0-2.1,0-4.3,0-6.1
			c-0.9,0-2.3,0-3.2,0.1c0,0.1,0,0.2,0,0.3c0.6,0.1,0.7,0.8,0.8,1.8c0.1,1.1,0.1,2.8,0.1,4.3c0,2.3-0.1,4.8-0.2,6.9
			c0.8,0,1.8,0,2.6-0.1c-0.1-1.8-0.1-4.1-0.1-6.4c0.3,0.4,0.6,0.8,0.7,0.9c0.8,1.1,2.2,2.8,3.6,4.5c0.7,0.9,1.3,1.2,2.1,1.2
			c0.8,0,2.1,0,3.3-0.1C192.2,32.8,192.2,32.7,192.2,32.6"/>
		<path class="st0" d="M204.9,19.2c-1,0-1.7,0.2-2.4,0.3c-0.5,0.1-0.9,0.4-1.2,0.8c-0.8,1.2-1.9,3.2-2.8,5c-0.9-1.7-2.3-4.1-3.6-5.5
			c-0.4-0.4-0.6-0.5-1.1-0.5c-0.7,0-1.6,0.2-2.5,0.4c0,0.1,0,0.2,0,0.3c0.5,0,0.7,0.2,1,0.5c0.8,0.7,1.5,1.7,2.1,2.5
			c0.9,1.3,1.8,2.8,2.4,4.1c0.1,1.7,0,3.9-0.1,5.7c0.7,0,2.1,0,2.8-0.1c-0.2-1.9-0.3-4.5-0.2-6.5c1.1-1.9,2.6-4.3,3.8-5.6
			c0.8-0.8,1.4-1.1,1.8-1.3C204.9,19.4,204.9,19.3,204.9,19.2"/>
		<path class="st0" d="M136.2,19.7c0,0.1,0,0.2,0,0.3c1,0,0.9,0.5,0.6,1.9c-0.5,1.7-1.8,5.6-2.7,7.6c-1-2.3-2.3-5.7-3.2-8.2
			c-0.2-0.4-0.3-1.1-0.4-1.6c-0.6,0-1.3,0-1.9,0.1c-0.8,2.9-1.8,6.4-3.2,9.7c-0.6-1.5-1.1-2.9-1.7-4.6c-0.7-1.7-1.4-3.9-1.8-5.2
			c-1.4,0-3,0-3.8,0.1c0,0.1,0,0.2,0,0.3c1.1,0.1,1.2,0.5,2.1,2.4c0.4,1,1,2.6,1.5,3.9c0.8,2.1,1.7,4.6,2.4,6.7c0.4,0,0.9,0,1.3-0.1
			c1.1-3.2,2.4-6.7,3.6-9.7c1.2,3.1,2.7,6.7,3.8,9.7c0.4,0,0.9,0,1.4-0.1c1.4-3.9,3.9-10.7,5.3-13.2c0,0,0-0.1-0.1-0.1
			C138.5,19.6,137.1,19.6,136.2,19.7"/>
	</g>
	<g>
		<path class="st0" d="M49.2,43.2c-0.2,0-0.7,0-0.9,0c0.1,0.7,0.1,2.6,0.1,4.2c-0.5-0.5-1-1.1-1.7-2c-0.6-0.7-1.1-1.3-1.7-1.9
			c-0.3-0.3-0.4-0.3-0.8-0.3c-0.2,0-0.7,0.1-1.2,0.2c0,0,0,0.1,0,0.1c0.3,0,0.4,0.1,0.7,0.3c0.1,0,0.1,0.1,0.2,0.1
			c0,0.7,0.1,1.8,0,2.7c0,0.9-0.1,1.7-0.1,2.5c0.2,0,0.6,0,0.8-0.1c-0.1-0.7-0.1-1.7-0.1-2.7c0-0.6,0-1.3,0-1.9
			c0.5,0.5,1,1.1,1.6,1.8c0.5,0.5,1.6,1.8,2.3,2.8c0.2,0,0.5,0,0.6,0C49,47.3,49,44.5,49.2,43.2"/>
		<path class="st0" d="M67.7,43.2c-0.2,0-0.7,0-0.9,0c0.1,0.7,0.1,2.6,0.1,4.2c-0.5-0.5-1-1.1-1.7-2c-0.6-0.7-1.1-1.3-1.7-1.9
			c-0.3-0.3-0.4-0.3-0.8-0.3c-0.2,0-0.7,0.1-1.2,0.2c0,0,0,0.1,0,0.1c0.3,0,0.4,0.1,0.7,0.3c0.1,0,0.1,0.1,0.2,0.1
			c0,0.7,0.1,1.8,0,2.7c0,0.9-0.1,1.7-0.1,2.5c0.2,0,0.6,0,0.8-0.1c-0.1-0.7-0.1-1.7-0.1-2.7c0-0.6,0-1.3,0-1.9
			c0.5,0.5,1,1.1,1.6,1.8c0.5,0.5,1.6,1.8,2.3,2.8c0.2,0,0.5,0,0.6,0C67.5,47.3,67.5,44.5,67.7,43.2"/>
		<path class="st0" d="M41.8,49c-0.3,0-0.4-0.1-0.4-0.3c-0.1-0.6-0.1-1.4-0.1-2.5c0-1.1,0-2.1,0.1-2.9c-0.3,0-0.8,0-1.1,0
			c0,1,0,1.9,0,3c0,0.6,0,1.1,0,1.6c-0.5,0.6-1,0.9-1.5,0.9c-0.6,0-1-0.2-1.3-0.7c-0.2-0.3-0.2-0.8-0.2-1.4c0-0.9,0-2.4,0-3.4
			c-0.3,0-1,0-1.4,0.1c0,0,0,0.1,0,0.1c0.2,0,0.3,0.2,0.3,0.6c0,0.8,0,2.2,0,3c0,0.5,0.1,1,0.3,1.3c0.3,0.6,0.9,0.9,1.8,0.9
			c0.8,0,1.4-0.3,2-0.9c0,0.3,0,0.5,0,0.7c0.3,0,1.1,0,1.5,0C41.8,49.1,41.9,49,41.8,49"/>
		<path class="st0" d="M99.5,49c-0.3,0-0.4-0.1-0.4-0.3c-0.1-0.6-0.1-1.4-0.1-2.5c0-1.1,0-2.1,0.1-2.9c-0.3,0-0.8,0-1.1,0
			c0,1,0,1.9,0,3c0,0.6,0,1.1,0,1.6c-0.5,0.6-1,0.9-1.5,0.9c-0.6,0-1-0.2-1.3-0.7c-0.2-0.3-0.2-0.8-0.2-1.4c0-0.9,0-2.4,0-3.4
			c-0.3,0-1,0-1.4,0.1c0,0,0,0.1,0,0.1c0.2,0,0.3,0.2,0.3,0.6c0,0.8,0,2.2,0,3c0,0.5,0.1,1,0.3,1.3c0.3,0.6,0.9,0.9,1.8,0.9
			c0.8,0,1.4-0.3,2-0.9c0,0.3,0,0.5,0,0.7c0.3,0,1.1,0,1.5,0C99.6,49.1,99.6,49,99.5,49"/>
		<path class="st0" d="M89.3,43.1c2.1,0,3,1.6,3,3.1c0,2.1-1.4,3.3-3.2,3.3c-2,0-3.1-1.6-3.1-3.2c0-1.1,0.5-2.2,1.6-2.7
			C88,43.2,88.6,43.1,89.3,43.1 M88.9,43.5c-1,0-1.8,0.8-1.8,2.3c0,1.8,1.1,3.2,2.3,3.2c0.9,0,1.7-0.7,1.7-2.3
			C91.1,44.8,90.2,43.5,88.9,43.5"/>
		<path class="st0" d="M31.5,43c2.1,0,3,1.6,3,3.1c0,2.1-1.4,3.3-3.2,3.3c-2,0-3.1-1.6-3.1-3.2c0-1.1,0.5-2.2,1.6-2.7
			C30.3,43.1,30.9,43,31.5,43 M31.2,43.4c-1,0-1.8,0.8-1.8,2.3c0,1.8,1.1,3.2,2.3,3.2c0.9,0,1.7-0.7,1.7-2.3
			C33.4,44.7,32.5,43.4,31.2,43.4"/>
		<path class="st0" d="M13.4,49C13,49,13,48.8,13,48.5c-0.1-0.6,0-1.9,0-2.5c0-0.9,0-2,0.1-2.8c-0.3,0-0.8,0-1.2,0
			c0,0.5,0,1.5,0,2.5c-0.9,0.1-2.2,0.1-3,0c0-0.9,0-1.8,0-2.6c-0.3,0-1,0-1.4,0c0,0,0,0.1,0,0.1c0.2,0,0.3,0.3,0.3,0.7
			c0,0.6,0,1.3,0,1.9c0,1,0,2.2-0.1,3.1c0.3,0,0.8,0,1.1,0c0-0.8,0-1.8,0-2.8c0.9,0,2.2,0,3,0c0,1,0,2.1-0.1,2.8c0.3,0,1.2,0,1.5,0
			C13.4,49.1,13.4,49,13.4,49"/>
		<path class="st0" d="M19,48.2c-0.1,0.3-0.4,0.4-1,0.4c-0.2,0-0.5,0-0.6,0c-0.4,0-0.6-0.1-0.6-0.7c0-0.5,0-1.1,0-1.6
			c0.5,0,1.1,0,1.7,0c0.1-0.1,0.2-0.4,0.2-0.6c-0.6,0-1.3,0.1-1.9,0c0-0.7,0-1.4,0-2c0.5,0,1.2,0,1.9,0c0.1-0.1,0.2-0.4,0.2-0.6
			c-1.1,0-2.5,0-3.5,0c0,0,0,0.1,0,0.1c0.3,0,0.3,0.3,0.3,0.8c0,0.6,0,1.2,0,1.9c0,1-0.1,2.2-0.1,3.1c1-0.1,2.1,0,3.3,0
			c0.1-0.2,0.2-0.7,0.2-0.9C19.1,48.2,19,48.2,19,48.2"/>
		<path class="st0" d="M110.3,48.2c-0.1,0.3-0.4,0.4-1,0.4c-0.2,0-0.5,0-0.6,0c-0.4,0-0.6-0.1-0.6-0.7c0-0.5,0-1.1,0-1.6
			c0.5,0,1.1,0,1.7,0c0.1-0.1,0.2-0.4,0.2-0.6c-0.6,0-1.3,0.1-1.9,0c0-0.7,0-1.4,0-2c0.6,0,1.2,0,1.9,0c0.1-0.1,0.2-0.4,0.2-0.6
			c-1.1,0-2.5,0-3.5,0c0,0,0,0.1,0,0.1c0.3,0,0.3,0.3,0.3,0.8c0,0.6,0,1.2,0,1.9c0,1-0.1,2.2-0.1,3.1c1-0.1,2.1,0,3.3,0
			c0.1-0.2,0.2-0.7,0.2-0.9C110.4,48.2,110.3,48.2,110.3,48.2"/>
		<path class="st0" d="M6.9,43.1c-0.4,0.1-1,0.1-1.5,0.1c-1.2,0-2.4,0-3.5,0c-0.2,0-0.4,0.1-0.5,0.2c-0.1,0.2-0.2,0.3-0.4,0.6
			c0,0,0.1,0.1,0.1,0.1c0.2-0.3,0.3-0.3,1.2-0.3c0.2,0,0.5,0,0.9,0c0,1.6,0,3.5-0.1,5.2c0.3,0,0.9,0,1.2,0c-0.1-1.6-0.1-3.6,0-5.2
			c0.4,0,0.8,0,1.1,0c0.3,0,0.6,0,0.8-0.1C6.4,43.6,6.7,43.4,6.9,43.1C7,43.2,6.9,43.2,6.9,43.1"/>
		<path class="st0" d="M200.4,45.6c-0.9-0.7-1-0.9-0.9-1.3c0-0.4,0.4-0.6,0.9-0.6c0.3,0,0.6,0.1,0.8,0.2c0.2,0.1,0.3,0.3,0.4,0.6
			c0,0,0.1,0,0.1,0c0-0.3,0.1-0.8,0.1-1.1c-0.4,0-0.8-0.1-1.2-0.1c-1.1,0-1.9,0.5-1.9,1.6c0,0.8,0.5,1.3,1.2,1.8
			c0.8,0.6,1.2,0.9,1.2,1.5c0,0.3-0.2,0.8-1,0.8c-0.4,0-0.8-0.1-1-0.3c-0.2-0.2-0.3-0.4-0.3-0.7c0,0-0.1,0-0.1,0
			c0,0.4-0.1,0.9-0.1,1.2c0.4,0.1,0.9,0.2,1.3,0.2c1.4,0,2.1-0.8,2.1-1.7C201.9,46.8,201.5,46.4,200.4,45.6"/>
		<path class="st0" d="M196.4,43.3c-0.4,0-1,0-1.5,0c0,0,0,0.1,0,0.1c0.3,0,0.3,0.2,0.3,0.6c0,1.5,0,3.8-0.1,5.1c0.3,0,0.9,0,1.2,0
			C196.3,47.5,196.3,45.1,196.4,43.3"/>
		<path class="st0" d="M193,49.1c-0.3,0-0.3-0.2-0.4-0.5c-0.1-0.6,0-1.9,0-2.5c0-0.9,0-2,0.1-2.8c-0.3,0-0.8,0-1.2,0
			c0,0.5,0,1.5,0,2.5c-0.9,0.1-2.2,0.1-3,0c0-0.9,0-1.8,0-2.6c-0.3,0-1,0-1.4,0c0,0,0,0.1,0,0.1c0.3,0,0.3,0.3,0.3,0.7
			c0,0.6,0,1.3,0,1.9c0,1,0,2.2-0.1,3.1c0.3,0,0.8,0,1.1,0c0-0.8,0-1.8,0-2.8c0.9,0,2.2,0,3,0c0,1,0,2.1-0.1,2.8c0.3,0,1.2,0,1.5,0
			C193,49.2,193,49.1,193,49.1"/>
		<path class="st0" d="M209.3,49.1c-0.4,0-0.6-0.2-0.9-0.5c-0.7-0.7-1.8-2-2.5-2.9c0.4-0.5,1.1-1.2,1.6-1.7c0.2-0.2,0.4-0.4,0.7-0.6
			c0,0,0-0.1,0-0.1c-0.3,0-0.9,0-1.1,0c-0.2,0.4-0.7,1.1-1.3,1.7c-0.3,0.3-0.6,0.6-0.9,0.9c0-0.9,0-1.9,0-2.7c-0.4,0-1,0-1.4,0
			c0,0,0,0.1,0,0.1c0.3,0,0.3,0.4,0.3,0.8c0,0.5,0.1,1.2,0.1,1.9c0,1,0,2.1-0.1,3.1c0.3,0,0.8,0,1.2,0c0-0.8-0.1-1.8-0.1-2.8
			c0.1,0.2,0.3,0.3,0.3,0.4c0.3,0.5,1,1.3,1.6,2c0.3,0.4,0.6,0.5,0.9,0.5c0.3,0,0.9,0,1.5,0C209.3,49.2,209.3,49.2,209.3,49.1"/>
		<path class="st0" d="M214.9,43.2c-0.4,0-0.7,0.1-1.1,0.1c-0.2,0-0.4,0.2-0.5,0.4c-0.3,0.5-0.8,1.4-1.2,2.2c-0.4-0.7-1-1.8-1.6-2.4
			c-0.2-0.2-0.3-0.2-0.5-0.2c-0.3,0-0.7,0.1-1.1,0.2c0,0,0,0.1,0,0.1c0.2,0,0.3,0.1,0.4,0.2c0.4,0.3,0.7,0.7,0.9,1.1
			c0.4,0.6,0.8,1.2,1.1,1.8c0,0.7,0,1.7-0.1,2.5c0.3,0,0.9,0,1.2,0c-0.1-0.8-0.1-2-0.1-2.9c0.5-0.9,1.2-1.9,1.7-2.5
			C214.5,43.5,214.7,43.3,214.9,43.2C214.9,43.3,214.9,43.2,214.9,43.2"/>
		<path class="st0" d="M184.5,43.4c0,0,0,0.1,0,0.1c0.4,0,0.4,0.2,0.3,0.8c-0.2,0.8-0.8,2.5-1.2,3.3c-0.5-1-1-2.5-1.4-3.6
			c-0.1-0.2-0.2-0.5-0.2-0.7c-0.3,0-0.6,0-0.8,0c-0.3,1.3-0.8,2.8-1.4,4.3c-0.3-0.7-0.5-1.3-0.8-2c-0.3-0.8-0.6-1.7-0.8-2.3
			c-0.6,0-1.3,0-1.7,0c0,0,0,0.1,0,0.1c0.5,0,0.5,0.2,0.9,1.1c0.2,0.4,0.4,1.1,0.7,1.7c0.4,0.9,0.8,2.1,1.1,3c0.2,0,0.4,0,0.6,0
			c0.5-1.4,1-3,1.6-4.3c0.5,1.4,1.2,3,1.7,4.3c0.2,0,0.4,0,0.6,0c0.6-1.7,1.7-4.7,2.4-5.8c0,0,0,0,0-0.1
			C185.5,43.3,184.9,43.4,184.5,43.4"/>
		<path class="st0" d="M53.4,43.6c-0.3,0-0.6,0-0.8,0.1c0,0.1-0.1,0.2-0.1,0.8v3.2c0,0.8,0.1,1,0.5,1h0.6c1.1,0,2-0.8,2-2.4
			C55.7,44.6,54.7,43.6,53.4,43.6 M56,48.2c-0.6,0.6-1.5,0.8-2.3,0.8h-1.8c-0.4,0-0.8,0-1.1,0c0,0,0-0.1,0-0.1c0-0.1,0-0.1,0.1-0.1
			l0.3-0.1c0.2,0,0.2-0.2,0.2-0.9v-3.5c0-0.7,0-0.8-0.2-0.9l-0.3-0.1c-0.1,0-0.1,0-0.1-0.1c0-0.1,0-0.1,0-0.1c0.2,0,0.6,0,1,0
			c0.6,0,1.1-0.1,1.7-0.1c1,0,1.9,0.2,2.6,0.9c0.5,0.5,0.8,1.2,0.8,2.1C56.9,46.9,56.6,47.7,56,48.2"/>
		<path class="st0" d="M26.7,43.9c0.1-0.1,0.2-0.5,0.2-0.6c-1,0.1-2.4,0-3.5,0c0,0,0,0.1,0,0.1c0.3,0,0.3,0.3,0.3,0.8
			c0,0.6,0,1.2,0,1.9c0,1,0,2.2-0.1,3.1c0.3,0,0.8,0,1.2,0c0-0.5,0-1.1,0-1.7c0-0.3,0-0.6,0-0.9c0.5,0,1.1,0,1.6,0
			c0.1-0.1,0.2-0.4,0.2-0.6c-0.6,0-1.3,0-1.9,0c0-0.7,0-1.5,0-2.1C25.4,43.9,26.1,43.9,26.7,43.9"/>
		<path class="st0" d="M59.8,43.2c-0.4,0-1,0-1.5,0c0,0,0,0.1,0,0.1c0.3,0,0.3,0.2,0.3,0.6c0,1.5,0,3.8-0.1,5.1c0.3,0,0.9,0,1.2,0
			C59.7,47.4,59.7,45,59.8,43.2"/>
		<path class="st0" d="M74.4,46.5c-0.2,0-0.4,0-0.6,0c-0.3,0-0.8,0-1.2,0c0,0,0,0.1,0,0.1c0,0.1,0,0.1,0.1,0.1l0.4,0.1
			c0.3,0.1,0.3,0.1,0.3,0.8V48c0,0.2,0,0.4,0,0.4c-0.2,0.2-0.7,0.4-1,0.4c-1.3,0-2.2-1.1-2.2-2.8c0-1.4,0.6-2.4,2-2.4
			c0.9,0,1.7,0.3,1.9,1.2c0,0.1,0.1,0.1,0.1,0.1c0.1,0,0.1,0,0.1,0c0-0.3-0.1-0.9-0.1-1.2c0,0,0-0.1-0.1-0.1
			c-0.5-0.2-1.3-0.3-2.1-0.3c-1.8,0-3.1,1-3.1,3c0,1.8,1.4,3,3.3,3c0.7,0,1.6-0.2,2.2-0.5c0,0,0-0.1,0.1-0.1
			c-0.1-0.1-0.1-0.2-0.1-0.7v-0.4V46.5z"/>
		<path class="st0" d="M84.5,49.1c-0.3,0-0.3-0.2-0.4-0.5c-0.1-0.6,0-1.9,0-2.5c0-0.9,0-2,0.1-2.8c-0.3,0-0.8,0-1.2,0
			c0,0.5,0,1.5,0,2.5c-0.9,0.1-2.2,0.1-3,0c0-0.9,0-1.8,0-2.6c-0.3,0-1,0-1.4,0c0,0,0,0.1,0,0.1c0.2,0,0.3,0.3,0.3,0.7
			c0,0.6,0,1.3,0,1.9c0,1,0,2.2-0.1,3.1c0.3,0,0.8,0,1.1,0c0-0.8,0-1.8,0-2.8c0.9,0,2.2,0,3,0c0,1,0,2.1-0.1,2.8c0.3,0,1.2,0,1.5,0
			C84.5,49.2,84.5,49.1,84.5,49.1"/>
		<path class="st0" d="M103.2,45.5c-0.9-0.7-1-0.9-0.9-1.3c0-0.4,0.4-0.7,0.9-0.7c0.3,0,0.6,0.1,0.8,0.2c0.2,0.1,0.3,0.3,0.4,0.6
			c0,0,0.1,0,0.1,0c0-0.3,0.1-0.8,0.1-1.1c-0.4,0-0.8-0.1-1.2-0.1c-1.1,0-1.9,0.5-1.9,1.6c0,0.8,0.5,1.3,1.2,1.8
			c0.8,0.6,1.2,0.9,1.2,1.5c0,0.3-0.2,0.8-1,0.8c-0.4,0-0.8-0.1-1-0.3c-0.2-0.2-0.3-0.4-0.3-0.7c0,0-0.1,0-0.1,0
			c0,0.4-0.1,0.9-0.1,1.2c0.4,0.1,0.9,0.2,1.3,0.2c1.4,0,2.1-0.8,2.1-1.7C104.6,46.7,104.3,46.3,103.2,45.5"/>
		<path class="st0" d="M125.5,43.9c0.1-0.1,0.2-0.5,0.2-0.6c-1,0.1-2.4,0-3.5,0c0,0,0,0.1,0,0.1c0.3,0,0.3,0.3,0.3,0.8
			c0,0.6,0,1.2,0,1.9c0,1,0,2.2-0.1,3.1c0.3,0,0.8,0,1.2,0c0-0.5,0-1.1,0-1.7c0-0.3,0-0.6,0-0.9c0.5,0,1.1,0,1.6,0
			c0.1-0.1,0.2-0.4,0.2-0.6c-0.6,0-1.3,0-1.9,0c0-0.7,0-1.5,0-2.1C124.2,43.9,124.9,43.9,125.5,43.9"/>
		<path class="st0" d="M117.6,43.1c2.1,0,3,1.6,3,3.1c0,2.1-1.4,3.3-3.2,3.3c-2,0-3.1-1.6-3.1-3.2c0-1.1,0.5-2.2,1.6-2.7
			C116.4,43.2,117,43.1,117.6,43.1 M117.3,43.5c-1,0-1.8,0.8-1.8,2.3c0,1.8,1.1,3.2,2.3,3.2c0.9,0,1.7-0.7,1.7-2.3
			C119.5,44.8,118.5,43.5,117.3,43.5"/>
		<path class="st0" d="M166.3,45.5c-0.9-0.7-1-0.9-0.9-1.3c0-0.4,0.4-0.7,0.9-0.7c0.3,0,0.6,0.1,0.8,0.2c0.2,0.1,0.3,0.3,0.4,0.6
			c0,0,0.1,0,0.1,0c0-0.3,0.1-0.8,0.1-1.1c-0.4,0-0.8-0.1-1.2-0.1c-1.1,0-1.9,0.5-1.9,1.6c0,0.8,0.5,1.3,1.2,1.8
			c0.8,0.6,1.2,0.9,1.2,1.5c0,0.3-0.2,0.8-1,0.8c-0.4,0-0.8-0.1-1-0.3c-0.2-0.2-0.3-0.4-0.3-0.7c0,0-0.1,0-0.1,0
			c0,0.4-0.1,0.9-0.1,1.2c0.4,0.1,0.9,0.2,1.3,0.2c1.4,0,2.1-0.8,2.1-1.7C167.8,46.8,167.4,46.4,166.3,45.5"/>
		<path class="st0" d="M129.8,43.3c0,0,0,0.1,0,0.1c0.3,0,0.3,0.3,0.3,0.7c0,0.6,0,1.3,0,2c0,0.5,0,1.4-0.1,2.4
			c0,0.6-0.2,1.1-0.5,1.5c-0.2,0.3-0.4,0.4-0.6,0.5c0,0,0,0.1,0.1,0.1c1.6-0.6,2-1.4,2-2.6c0-0.9,0-1.5,0-2.3c0-0.9,0-1.9,0.1-2.5
			C130.8,43.2,130.3,43.3,129.8,43.3"/>
		<path class="st0" d="M162.8,48.2c-0.1,0.3-0.4,0.4-1,0.4c-0.2,0-0.5,0-0.6,0c-0.4,0-0.6-0.1-0.6-0.7c0-0.5,0-1.1,0-1.6
			c0.5,0,1.1,0,1.7,0c0.1-0.1,0.2-0.4,0.2-0.6c-0.6,0-1.3,0.1-1.9,0c0-0.7,0-1.4,0-2c0.6,0,1.2,0,1.9,0c0.1-0.1,0.2-0.4,0.2-0.6
			c-1.1,0-2.5,0-3.5,0c0,0,0,0.1,0,0.1c0.3,0,0.3,0.3,0.3,0.8c0,0.6,0,1.2,0,1.9c0,1-0.1,2.2-0.1,3.1c1-0.1,2.1,0,3.3,0
			c0.1-0.2,0.2-0.7,0.2-0.9C162.9,48.2,162.8,48.2,162.8,48.2"/>
		<path class="st0" d="M173.2,48.2c-0.1,0.3-0.4,0.4-1,0.4c-0.2,0-0.5,0-0.6,0c-0.4,0-0.6-0.1-0.6-0.7c0-0.5,0-1.1,0-1.6
			c0.5,0,1.1,0,1.7,0c0.1-0.1,0.2-0.4,0.2-0.6c-0.6,0-1.3,0.1-1.9,0c0-0.7,0-1.4,0-2c0.5,0,1.2,0,1.9,0c0.1-0.1,0.2-0.4,0.2-0.6
			c-1.1,0-2.5,0-3.5,0c0,0,0,0.1,0,0.1c0.3,0,0.3,0.3,0.3,0.8c0,0.6,0,1.2,0,1.9c0,1-0.1,2.2-0.1,3.1c1-0.1,2.1,0,3.3,0
			c0.1-0.2,0.2-0.7,0.2-0.9C173.3,48.2,173.2,48.2,173.2,48.2"/>
		<path class="st0" d="M143.5,44.7c0-0.9-0.7-1.4-1.8-1.4c-0.4,0-0.9,0-1.1,0c-0.3,0-0.7,0-1.2,0c0,0,0,0.1,0,0.1
			c0.3,0,0.3,0.2,0.3,0.7c0,0.5,0.1,1.6,0.1,2.1c0,1,0,2.2-0.1,2.9c0.3,0,0.8,0,1.2,0c-0.1-1.5-0.1-3.8-0.1-5.6c0.1,0,0.2,0,0.2,0
			c0.9,0,1.3,0.5,1.3,1.4c0,0.7-0.2,1.4-1.1,1.6c0,0,0,0.1,0,0.2C142.6,46.5,143.5,45.9,143.5,44.7"/>
		<path class="st0" d="M156.9,43.3c-0.2,0-0.7,0-0.9,0c0.1,0.7,0.1,2.6,0.1,4.2c-0.5-0.5-1-1.1-1.7-2c-0.6-0.7-1.1-1.3-1.7-1.9
			c-0.3-0.3-0.4-0.3-0.8-0.3c-0.2,0-0.7,0.1-1.2,0.2c0,0,0,0.1,0,0.1c0.3,0,0.4,0.1,0.7,0.3c0.1,0,0.1,0.1,0.2,0.1
			c0,0.7,0.1,1.8,0,2.7c0,0.9-0.1,1.7-0.1,2.5c0.2,0,0.6,0,0.8-0.1c-0.1-0.7-0.1-1.7-0.1-2.7c0-0.6,0-1.3,0-1.9
			c0.5,0.5,1,1.1,1.6,1.8c0.5,0.5,1.6,1.8,2.3,2.8c0.2,0,0.5,0,0.6,0C156.7,47.4,156.7,44.6,156.9,43.3"/>
		<path class="st0" d="M138.5,49.1c-0.2-0.1-0.5-0.6-0.8-1.2c-0.4-0.9-1.6-3.8-1.8-4.7c-0.3,0-0.7,0.1-1,0.2
			c-0.6,1.7-1.6,4.1-2.5,5.9c0.2,0,0.7,0,0.9,0c0.2-0.6,0.5-1.4,0.8-2.2c0.6,0,1.4,0,2,0c0.3,0.9,0.7,1.7,0.9,2.2
			C137.4,49.2,138.1,49.2,138.5,49.1C138.5,49.1,138.5,49.1,138.5,49.1 M134.3,46.5c0.3-0.7,0.6-1.4,0.8-2c0.2,0.5,0.5,1.2,0.8,2
			C135.4,46.5,134.8,46.5,134.3,46.5"/>
		<path class="st0" d="M150,49.1c-0.2-0.1-0.5-0.6-0.8-1.2c-0.4-0.9-1.6-3.8-1.8-4.7c-0.3,0-0.7,0.1-1,0.2c-0.6,1.7-1.5,4.1-2.5,5.9
			c0.2,0,0.7,0,0.9,0c0.2-0.6,0.5-1.4,0.8-2.2c0.6,0,1.4,0,2,0c0.3,0.9,0.7,1.7,0.9,2.2C148.9,49.2,149.6,49.2,150,49.1
			C150,49.1,150,49.1,150,49.1 M145.9,46.5c0.3-0.7,0.6-1.4,0.8-2c0.2,0.5,0.5,1.2,0.8,2C147,46.5,146.4,46.5,145.9,46.5"/>
	</g>
	<g>
		<path class="st0" d="M104.6,1.4c-0.4,0.1-1,0.1-1.6,0.1c-1.3,0-2.6,0-3.7,0c-0.2,0-0.4,0.1-0.5,0.2c-0.1,0.2-0.2,0.4-0.4,0.7
			c0,0,0.1,0.1,0.1,0.1c0.2-0.3,0.3-0.4,1.2-0.3h1c0,1.7,0,3.8-0.1,5.6c0.3,0,1,0,1.3,0c-0.1-1.7-0.1-3.8,0-5.6c0.4,0,0.8,0,1.1,0
			c0.3,0,0.6,0,0.8-0.2C104.1,1.8,104.4,1.6,104.6,1.4C104.7,1.4,104.6,1.4,104.6,1.4"/>
		<path class="st0" d="M110.5,1.3c-0.8,0.2-1.8,0.4-2.7,0.5c0,0.1,0,0.2,0,0.3c0.3,0,0.6,0,0.8,0c0.5,0,0.5,0.2,0.5,1.2
			c0,0.6,0,1.1,0,1.7c0,0.9,0,1.9-0.1,2.7c0.4,0,0.9,0,1.3,0C110.4,5.7,110.4,3.3,110.5,1.3"/>
		<path class="st0" d="M117.4,4.1c0-1.8-0.9-2.7-2.6-2.7c-1.2,0-2.4,0.8-2.4,2.3c0,1.4,1,2,1.8,2c0.5,0,0.9-0.1,1.3-0.3
			c0-0.1,0-0.2-0.1-0.2c-0.1,0.1-0.3,0.1-0.5,0.1c-0.8,0-1.2-0.8-1.2-2c0-1,0.3-1.4,0.8-1.5c1-0.1,1.4,0.9,1.4,2.8
			c0,2-1,3.7-3.1,4.1c0,0.1,0,0.2,0.1,0.3C115,8.8,117.4,7,117.4,4.1"/>
		<path class="st0" d="M122.6,7.5c0.1-0.2,0.3-0.8,0.4-1.2c0,0-0.1,0-0.2,0c-0.2,0.3-0.4,0.4-0.8,0.4c-0.5,0-1.5,0-2.1,0
			c1.5-1.4,2.8-2.3,2.8-3.9c0-0.9-0.7-1.4-1.7-1.4c-0.6,0-1.4,0.2-2.2,0.6c0,0.3,0.1,0.6,0.2,0.9c0.1,0,0.1,0,0.2,0
			c0.1-0.6,0.6-0.9,1.2-0.9c0.7,0,0.9,0.6,0.9,1.3c0,1.5-1.6,3-2.9,4.3c0,0.1,0,0.2,0.1,0.3c1.1-0.1,3.1,0,3.8,0
			C122.5,7.7,122.6,7.6,122.6,7.5"/>
		<path class="st0" d="M126.4,4.3c0.8-0.4,1.4-1,1.4-1.7c0-0.7-0.6-1.2-1.6-1.2c-0.5,0-1.1,0.1-1.9,0.4c0,0.2,0.1,0.6,0.2,0.8
			c0.1,0,0.1,0,0.2,0c0.1-0.4,0.4-0.8,1.1-0.8c0.4,0,0.8,0.3,0.8,0.9c0,0.6-0.4,1.5-1.6,1.7c0,0.1,0,0.2,0.1,0.3
			c0.3-0.1,0.5-0.1,0.7-0.1c0.7,0,1.1,0.5,1.1,1.3c0,1.2-1,2.5-2.8,2.7c0,0.1,0,0.2,0.1,0.3c2.9-0.3,4.1-1.9,4.1-3.2
			C128.2,4.7,127.3,4.3,126.4,4.3"/>
		<path class="st0" d="M92,6.6c-0.2,0.3-0.5,0.4-1.1,0.5c-0.3,0-0.4,0-0.6,0c-0.6,0-0.7-0.1-0.7-1c0-0.4,0-0.9,0-1.3
			c0.6,0,1.3,0,1.9,0c0.1-0.1,0.2-0.5,0.3-0.7c-0.7,0-1.5,0.1-2.1,0c0-0.7,0-1.3,0-2c0.6,0,1.4,0,2.1,0c0.1-0.2,0.2-0.5,0.3-0.7
			c-1.2,0-2.9,0-4,0c0,0,0,0.1,0,0.2c0.3,0,0.3,0.3,0.3,0.8c0,0.6,0,1.3,0,2c0,1,0,2.4-0.1,3.3c1.1-0.1,2.4,0,3.8,0
			c0.1-0.3,0.2-0.8,0.2-1.1C92.1,6.6,92,6.6,92,6.6"/>
		<path class="st0" d="M96,3.9c-0.9-0.6-1.1-0.9-1.1-1.3c0-0.5,0.4-0.7,0.9-0.7c0.4,0,0.7,0.1,0.9,0.2c0.2,0.1,0.4,0.3,0.5,0.6
			c0,0,0.1,0,0.2,0c0-0.3,0.1-0.9,0.1-1.2c-0.4,0-0.9-0.1-1.4-0.1c-1.2,0-2.1,0.6-2.1,1.7c0,0.9,0.6,1.3,1.4,1.9
			c0.9,0.7,1.3,1,1.3,1.5c0,0.3-0.3,0.8-1.1,0.8c-0.4,0-0.9-0.1-1.1-0.3C94.1,6.8,94,6.6,94,6.3c0,0-0.1,0-0.2,0
			c-0.1,0.4-0.1,0.9-0.1,1.3c0.5,0.2,1.1,0.2,1.5,0.2c1.6,0,2.4-0.9,2.4-1.8C97.5,5.2,97.1,4.7,96,3.9"/>
	</g>
</g>
</svg>
