<?xml version="1.0" encoding="utf-8"?>
<!-- Generator: Adobe Illustrator 22.1.0, SVG Export Plug-In . SVG Version: 6.00 Build 0)  -->
<svg version="1.1" id="Layer_1" xmlns="http://www.w3.org/2000/svg" xmlns:xlink="http://www.w3.org/1999/xlink" x="0px" y="0px"
	 viewBox="0 0 217 35" style="enable-background:new 0 0 217 35;" xml:space="preserve">
<style type="text/css">
	.st0{fill:#231916;}
</style>
<g>
	<g>
		<g>
			<path class="st0" d="M167.3,1.4c-0.4,0-1.2,0-1.6,0.1c0.2,1.2,0.2,4.9,0.2,7.7c-0.8-1-1.8-2.1-3.2-3.7c-1.1-1.3-2-2.3-3.2-3.4
				c-0.6-0.6-0.8-0.6-1.5-0.6c-0.4,0-1.2,0.1-2.2,0.3c0,0.1,0,0.2,0,0.2c0.5,0,0.8,0.2,1.2,0.6c0.1,0.1,0.2,0.2,0.3,0.3
				c0.1,1.4,0.1,3.3,0.1,4.9c0,1.6-0.1,3.1-0.2,4.6c0.4,0,1-0.1,1.4-0.1c-0.1-1.3-0.1-3.2-0.2-4.9c0-1,0-2.3,0-3.4
				c0.8,0.9,1.8,1.9,3,3.3c0.9,1,3,3.4,4.3,5.1c0.4,0.1,0.9,0.1,1.2,0C166.9,9,167,3.8,167.3,1.4z"/>
			<path class="st0" d="M136.7,5.6c-1.6-1.2-1.8-1.7-1.7-2.3c0-0.8,0.8-1.2,1.6-1.2c0.6,0,1,0.1,1.5,0.4c0.4,0.2,0.6,0.5,0.7,1.1
				c0.1,0,0.2,0,0.2,0c0.1-0.6,0.1-1.4,0.1-2c-0.7-0.1-1.4-0.2-2.2-0.2c-2,0-3.5,1-3.5,2.9c0,1.4,0.9,2.3,2.3,3.3
				c1.4,1.1,2.1,1.6,2.1,2.7c0,0.6-0.4,1.4-1.8,1.4c-0.7,0-1.4-0.2-1.9-0.6c-0.3-0.3-0.6-0.7-0.6-1.2c-0.1,0-0.2,0-0.2,0
				c-0.1,0.8-0.2,1.6-0.2,2.2c0.7,0.3,1.7,0.4,2.4,0.4c2.6,0,3.8-1.4,3.8-3.1C139.3,7.8,138.7,7.1,136.7,5.6z"/>
			<path class="st0" d="M186.5,1c3.9,0,5.6,2.9,5.6,5.6c0,3.9-2.6,6-5.8,6c-3.8,0-5.8-2.9-5.8-5.9c0-2,0.9-4.1,2.9-5
				C184.3,1.2,185.4,1,186.5,1z M185.9,1.8c-1.9,0-3.3,1.5-3.3,4.2c0,3.3,2,5.9,4.2,5.9c1.7,0,3.2-1.4,3.2-4.1
				C190,4.2,188.2,1.8,185.9,1.8z"/>
			<path class="st0" d="M205.7,12c-0.7,0-1.2-0.3-2-1.2c-1.4-1.6-2.3-2.9-3-3.9c1.2-0.9,1.8-2,1.8-3.1c0-1.6-1.2-2.5-3.3-2.5
				c-0.7,0-1.7,0-2,0.1c-0.6,0-1.4,0.1-2.2,0.1c0,0.1,0,0.2,0,0.2c0.4,0,0.5,0.3,0.6,1.4c0.1,1,0.1,2.8,0.1,3.8c0,1.8,0,3.7-0.1,5.4
				c0.6,0,1.5,0,2.2-0.1c-0.1-1.3-0.1-2.8-0.1-4.4c0.5,0,1.1,0,1.5,0c0.5,0.8,1.6,2.6,2.6,3.8c0.5,0.6,0.8,0.7,1.5,0.7
				c0.7,0,1.5,0,2.5-0.1C205.7,12.2,205.7,12.1,205.7,12z M199.5,7c-0.6,0.1-1.3,0.1-1.9,0c0-1.7,0-3.5,0-5.1c0.2,0,0.5,0,0.8,0
				c1.4,0.1,2.1,0.8,2.1,2.5C200.4,5.6,200.1,6.5,199.5,7z M200.7,7C200.7,7,200.7,7,200.7,7C200.7,7,200.7,7,200.7,7z"/>
			<path class="st0" d="M215.7,1.2c-0.8,0-1.4,0.1-2,0.2c-0.4,0.1-0.7,0.3-1,0.7c-0.6,1-1.5,2.6-2.3,4.1c-0.7-1.4-1.9-3.3-3-4.5
				c-0.3-0.4-0.5-0.4-0.9-0.4c-0.6,0-1.5,0.2-2.2,0.4c0,0.1,0,0.2,0,0.2c0.4,0,0.8,0.1,1.1,0.5c0.5,0.5,1.2,1.3,1.6,1.9
				c0.8,1,1.5,2.3,2,3.4c0.1,1.4,0,3.1-0.1,4.6c0.6,0,1.7,0,2.3,0c-0.1-1.5-0.2-3.7-0.1-5.3c0.9-1.6,2.1-3.5,3.1-4.5
				c0.6-0.7,1.1-0.9,1.5-1C215.7,1.3,215.7,1.2,215.7,1.2z"/>
			<path class="st0" d="M180.2,1.3c-0.8,0.2-1.7,0.2-2.8,0.2c-2.2,0-4.5-0.1-6.4,0c-0.4,0-0.7,0.1-0.9,0.4c-0.2,0.3-0.3,0.6-0.7,1.2
				c0,0,0.1,0.1,0.2,0.1c0.4-0.5,0.5-0.6,2.1-0.6c0.4,0,1,0,1.7,0c0.1,3,0,6.5-0.2,9.6c0.5,0,1.7,0,2.2,0c-0.2-3-0.2-6.6,0-9.6
				c0.7,0,1.4,0,1.9,0c0.6,0,1.1-0.1,1.5-0.3c0.4-0.2,1-0.6,1.4-1C180.3,1.4,180.2,1.3,180.2,1.3z"/>
			<path class="st0" d="M153.2,12c-0.5,0-0.7-0.1-0.7-0.6c-0.1-1.1-0.1-2.6-0.1-4.6c0-2,0.1-3.9,0.2-5.3c-0.6,0-1.5,0-2.1,0
				c0,1.9,0,3.5,0,5.4c0,1,0,2,0,2.9c-0.9,1.2-1.8,1.7-2.8,1.7c-1.1,0-1.9-0.4-2.3-1.2c-0.4-0.6-0.4-1.5-0.5-2.6
				c0-1.6,0-4.4,0.1-6.2c-0.5,0-1.9,0.1-2.5,0.1c0,0,0,0.2,0,0.2c0.4,0,0.5,0.3,0.5,1.1c0.1,1.5,0,4,0,5.6c0,1,0.2,1.8,0.5,2.5
				c0.6,1.1,1.7,1.7,3.3,1.7c1.4,0,2.6-0.6,3.6-1.6c0,0.5,0,0.9,0.1,1.2c0.6,0,2,0,2.7,0C153.2,12.1,153.2,12,153.2,12z"/>
		</g>
		<g>
			<path class="st0" d="M126.4,2.5c0.2-0.3,0.4-0.8,0.4-1.1c-1.8,0.1-4.4,0.1-6.4,0.1c0,0.1,0,0.1,0,0.2c0.5,0,0.5,0.6,0.6,1.4
				c0.1,1,0.1,2.3,0.1,3.5c0,1.9-0.1,4-0.2,5.7c0.6,0,1.5,0,2.2-0.1c0-0.9-0.1-2-0.1-3.1c0-0.6,0-1.1,0-1.7c0.9,0,2,0,3,0.1
				c0.2-0.3,0.4-0.8,0.4-1c-1.1,0.1-2.4,0.1-3.4,0.1c0-1.3,0-2.7,0.1-3.9C124,2.5,125.2,2.4,126.4,2.5z"/>
			<g>
				<path class="st0" d="M111.9,1c3.9,0,5.6,2.9,5.6,5.6c0,3.9-2.6,6-5.8,6c-3.8,0-5.8-2.9-5.8-5.9c0-2,0.9-4.1,2.9-5
					C109.7,1.2,110.7,1,111.9,1z M111.2,1.8c-1.9,0-3.3,1.5-3.3,4.2c0,3.3,2,5.9,4.2,5.9c1.7,0,3.2-1.4,3.2-4.1
					C115.3,4.2,113.6,1.8,111.2,1.8z"/>
			</g>
		</g>
		<g>
			<path class="st0" d="M51.7,12c-0.6,0-0.6-0.3-0.7-0.8C50.9,10,51,7.7,50.9,6.6c0-1.7,0.1-3.7,0.2-5.1c-0.6,0-1.5,0-2.2,0
				C49,2.4,49,4.2,49,6c-1.6,0.1-4.1,0.1-5.5,0c0-1.6,0-3.3,0.1-4.7c-0.6,0-1.9,0.1-2.5,0.1c0,0.1,0,0.2,0,0.2
				c0.5,0,0.5,0.5,0.6,1.3c0.1,1,0.1,2.3,0.1,3.5c0,1.9-0.1,4-0.2,5.7c0.6,0,1.5,0,2.1-0.1c-0.1-1.4-0.1-3.2-0.1-5.1
				c1.6-0.1,4-0.1,5.5,0c0,1.9,0,3.8-0.1,5.2c0.6,0,2.1,0,2.8,0C51.7,12.2,51.7,12.1,51.7,12z"/>
			<path class="st0" d="M86.4,5.6c-1.6-1.2-1.8-1.7-1.7-2.3c0-0.8,0.8-1.2,1.6-1.2c0.6,0,1,0.1,1.5,0.4c0.4,0.2,0.6,0.5,0.7,1.1
				c0.1,0,0.2,0,0.2,0c0.1-0.6,0.1-1.4,0.1-2c-0.7-0.1-1.4-0.2-2.2-0.2c-2,0-3.5,1-3.5,2.9c0,1.4,0.9,2.3,2.3,3.3
				c1.4,1.1,2.1,1.6,2.1,2.7c0,0.6-0.4,1.4-1.8,1.4c-0.7,0-1.4-0.2-1.9-0.6c-0.3-0.3-0.6-0.7-0.6-1.2c-0.1,0-0.2,0-0.2,0
				c-0.1,0.8-0.2,1.6-0.2,2.2c0.7,0.3,1.7,0.4,2.4,0.4c2.6,0,3.8-1.4,3.8-3.1C89,7.8,88.4,7.1,86.4,5.6z"/>
			<path class="st0" d="M99.1,10.5c-0.2,0.5-0.8,0.7-1.9,0.8c-0.4,0-0.9,0-1.2,0c-0.8-0.1-1.1-0.2-1.1-1.2c0-0.8,0-2.1,0-3
				c0.9,0,2,0,3,0c0.1-0.2,0.4-0.8,0.4-1c-1.2,0.1-2.5,0.1-3.5,0.1c0-1.3,0-2.5,0-3.7c1,0,2.2,0,3.4,0c0.2-0.2,0.4-0.8,0.4-1.1
				c-2,0.1-4.7,0.1-6.4,0c0,0.1,0,0.2,0,0.2c0.5,0,0.5,0.5,0.6,1.4c0.1,1,0.1,2.2,0.1,3.5c0,1.8-0.1,4-0.2,5.7c1.8-0.1,3.9,0,6.1,0
				c0.2-0.5,0.4-1.3,0.4-1.7C99.2,10.5,99.1,10.5,99.1,10.5z"/>
			<path class="st0" d="M79.7,12c-0.5,0-0.7-0.1-0.7-0.6c-0.1-1.1-0.1-2.6-0.1-4.6c0-2,0.1-3.9,0.2-5.3c-0.6,0-1.5,0-2.1,0
				c0,1.9,0,3.5,0,5.4c0,1,0,2,0,2.9c-0.9,1.2-1.8,1.7-2.8,1.7c-1.1,0-1.9-0.4-2.3-1.2c-0.4-0.6-0.4-1.5-0.5-2.6
				c0-1.6,0-4.4,0.1-6.2c-0.5,0-1.9,0.1-2.5,0.1c0,0,0,0.2,0,0.2c0.4,0,0.5,0.3,0.5,1.1c0.1,1.5,0,4,0,5.6c0,1,0.2,1.8,0.5,2.5
				c0.6,1.1,1.7,1.7,3.3,1.7c1.4,0,2.6-0.6,3.6-1.6c0,0.5,0,0.9,0.1,1.2c0.6,0,2,0,2.7,0C79.7,12.1,79.7,12,79.7,12z"/>
			<path class="st0" d="M60.6,1c3.9,0,5.6,2.9,5.6,5.6c0,3.9-2.6,6-5.8,6c-3.8,0-5.8-2.9-5.8-5.9c0-2,0.9-4.1,2.9-5
				C58.3,1.2,59.4,1,60.6,1z M59.9,1.8c-1.9,0-3.3,1.5-3.3,4.2c0,3.3,2,5.9,4.2,5.9c1.7,0,3.2-1.4,3.2-4.1C64,4.2,62.2,1.8,59.9,1.8
				z"/>
		</g>
		<g>
			<path class="st0" d="M23.6,12c-0.6,0-0.6-0.3-0.7-0.8c-0.1-1.2-0.1-3.5-0.1-4.6c0-1.7,0.1-3.7,0.2-5.1c-0.6,0-1.5,0-2.2,0
				c0.1,1,0.1,2.7,0.1,4.6c-1.6,0.1-4.1,0.1-5.5,0c0-1.6,0-3.3,0.1-4.7c-0.6,0-1.9,0.1-2.5,0.1c0,0.1,0,0.2,0,0.2
				c0.5,0,0.5,0.5,0.6,1.3c0.1,1,0.1,2.3,0.1,3.5c0,1.9-0.1,4-0.2,5.7c0.6,0,1.5,0,2.1-0.1c-0.1-1.4-0.1-3.2-0.1-5.1
				c1.6-0.1,4-0.1,5.5,0c0,1.9,0,3.8-0.1,5.2c0.6,0,2.1,0,2.8,0C23.6,12.2,23.6,12.1,23.6,12z"/>
			<path class="st0" d="M33.9,10.5c-0.3,0.5-0.8,0.7-1.9,0.8c-0.4,0-0.9,0-1.2,0c-0.8-0.1-1.1-0.2-1.1-1.2c0-0.8,0-2.1,0-3
				c0.9,0,2,0,3,0c0.1-0.2,0.4-0.8,0.4-1c-1.2,0.1-2.5,0.1-3.5,0.1c0-1.3,0-2.5,0-3.7c1,0,2.2,0,3.4,0c0.2-0.2,0.4-0.8,0.4-1.1
				c-2,0.1-4.7,0.1-6.4,0c0,0.1,0,0.2,0,0.2c0.5,0,0.5,0.5,0.6,1.4c0.1,1,0.1,2.2,0.1,3.5c0,1.8-0.1,4-0.2,5.7c1.8-0.1,3.9,0,6.1,0
				c0.2-0.5,0.4-1.3,0.4-1.7C34.1,10.5,34,10.5,33.9,10.5z"/>
			<path class="st0" d="M11.7,1.3C11,1.5,10,1.5,9,1.5c-2.2,0-4.5-0.1-6.4,0c-0.4,0-0.7,0.1-0.9,0.4C1.5,2.2,1.3,2.6,1,3.1
				c0,0,0.1,0.1,0.2,0.1c0.4-0.5,0.5-0.6,2.1-0.6c0.4,0,1,0,1.7,0c0.1,3,0,6.5-0.2,9.6c0.5,0,1.7,0,2.2,0c-0.2-3-0.2-6.6,0-9.6
				c0.7,0,1.4,0,1.9,0c0.6,0,1.1-0.1,1.5-0.3c0.4-0.2,1-0.6,1.4-1C11.8,1.4,11.8,1.3,11.7,1.3z"/>
		</g>
	</g>
	<g>
		<g>
			<path class="st0" d="M45.5,29.8c-0.5,0-0.5-0.2-0.5-0.6c0-1.1,0-2.2,0-2.8c0-1.1-0.5-1.6-1.6-1.6c-0.5,0-1.2,0.2-1.9,0.7
				c0-1,0-2.4,0.1-3.3c0,0,0,0-0.1-0.1c-0.8,0.3-1.9,0.5-2.6,0.5c-1.6,0-3.2,0-4.5,0c-0.3,0-0.5,0.1-0.6,0.3
				c-0.1,0.2-0.2,0.4-0.4,0.8c0,0,0.1,0.1,0.1,0.1c0.3-0.5,0.3-0.6,1.4-0.5c0.3,0,0.8,0,1.3,0c0,2.1,0,4.6-0.1,6.8
				c0.4,0,1.1,0,1.4,0c-0.1-2.1-0.1-4.7,0-6.8c0.5,0,0.8,0,1.2,0c0.4,0,0.8,0,1-0.2c0.2-0.1,0.4-0.2,0.6-0.4
				c0.1,0.7,0.1,2.2,0.1,3.6c0,1.4,0,2.9-0.1,3.8c0.4,0,0.8,0,1.2,0c-0.1-1.2-0.1-3-0.1-4.1c0.4-0.4,0.8-0.6,1.2-0.6
				c0.7,0,1,0.4,1,1.4c0,0.8,0,2.3,0,3.3c0.6,0,1.2,0,1.8,0C45.5,29.9,45.5,29.8,45.5,29.8z"/>
			<path class="st0" d="M51.4,27.3c0.1-0.1,0.2-0.1,0.2-0.2c0-1.6-0.9-2.4-2.4-2.4c-1.6,0-2.7,1-2.7,2.8c0,1.6,1,2.7,2.8,2.7
				c0.6,0,1.2-0.1,2-0.5c0-0.1,0.1-0.5,0.1-0.6c-0.5,0.3-1.1,0.5-1.8,0.5c-1.1,0-1.9-0.9-1.9-2.3c0.4,0,0.8,0,1.2,0
				C49.7,27.3,50.6,27.3,51.4,27.3z M47.8,26.9c0.1-1.1,0.4-1.8,1.3-1.8c0.9,0,1.3,0.7,1.1,1.8C49.4,26.9,48.4,26.9,47.8,26.9z"/>
		</g>
		<g>
			<path class="st0" d="M89.4,27.3c0.1-0.1,0.2-0.1,0.2-0.2c0-1.6-0.9-2.4-2.4-2.4c-1.6,0-2.7,1-2.7,2.8c0,1.6,1,2.7,2.8,2.7
				c0.6,0,1.2-0.1,2-0.5c0-0.1,0.1-0.5,0.1-0.6c-0.5,0.3-1.1,0.5-1.8,0.5c-1.1,0-1.9-0.9-1.9-2.3c0.4,0,0.8,0,1.2,0
				C87.7,27.3,88.6,27.3,89.4,27.3z M85.7,26.9c0.1-1.1,0.4-1.8,1.3-1.8c0.9,0,1.3,0.7,1.1,1.8C87.4,26.9,86.4,26.9,85.7,26.9z"/>
			<path class="st0" d="M62.5,22.4c-0.3,0-0.7,0-1,0c0.2,0.9,0.1,3.5,0.1,5.5c-0.6-0.7-1.4-1.6-2.3-2.7c-0.8-0.9-1.4-1.6-2.2-2.4
				c-0.4-0.4-0.5-0.4-1.1-0.4c-0.3,0-0.8,0.1-1.5,0.2c0,0,0,0.1,0,0.2c0.3,0,0.5,0.1,0.9,0.3c0.1,0.1,0.2,0.1,0.2,0.2
				c0.1,1,0.1,2.3,0.1,3.5c0,1.1-0.1,2.1-0.1,3.2c0.3,0,0.6,0,0.9-0.1c-0.1-0.9-0.1-2.2-0.1-3.4c0-0.7,0-1.8,0-2.6
				c0.6,0.6,1.4,1.5,2.2,2.4c0.6,0.7,2.1,2.4,3,3.6c0.3,0.1,0.6,0.1,0.7,0C62.2,27.7,62.2,24.1,62.5,22.4z"/>
			<path class="st0" d="M68.8,29.8c-0.5,0-0.5-0.2-0.6-0.8c0-0.6,0-1.6,0-2.3c0-1.3-0.4-2-1.8-2c-0.5,0-1.2,0.2-2.2,0.5
				c0,0.4,0.1,0.8,0.1,1.2c0.1,0,0.1,0,0.2,0c0.1-0.9,0.7-1.2,1.3-1.2c0.9,0,1.3,0.6,1.3,1.5c-0.9,0.2-1.7,0.4-2.3,0.7
				c-0.8,0.3-1,0.7-1,1.4c0,0.9,0.5,1.4,1.6,1.4c0.5,0,1.2-0.3,1.7-0.8c0,0.2,0.1,0.5,0.1,0.7c0.6,0,1.1,0,1.6,0
				C68.9,29.9,68.9,29.8,68.8,29.8z M66,29.5c-0.7,0-1-0.5-1-1.1c0-0.4,0.2-0.8,0.7-1c0.3-0.1,0.9-0.3,1.5-0.5c0,0.6,0,1.4,0,1.9
				C66.8,29.2,66.3,29.5,66,29.5z"/>
			<path class="st0" d="M73.2,29.3c-0.3,0.1-0.5,0.2-0.7,0.2c-0.7,0-1-0.5-1-1.2c0-0.6,0-1.1,0-2.2c0-0.2,0-0.5,0-0.8
				c0.5,0,1.1,0,1.5,0c0.1-0.1,0.1-0.3,0.1-0.4c-0.5,0-1,0-1.6,0c0-0.7,0.1-1.4,0.1-1.9c-0.4,0.1-0.8,0.2-1.2,0.3c0,0.6,0,1.1,0,1.6
				c-0.3,0-0.7,0-0.9,0c0,0.2-0.1,0.3-0.1,0.5c0.2,0,0.6,0,1,0c0,0,0,0,0,0c0,1.3,0,2.4,0,3.2c0,0.8,0.4,1.5,1.4,1.5
				c0.5,0,1-0.2,1.5-0.5C73.2,29.5,73.2,29.4,73.2,29.3z"/>
			<path class="st0" d="M79.4,29.8c-0.5,0-0.5-0.3-0.6-0.9c0-0.8,0-2.6,0.1-4.1c-0.4,0-0.8,0-1.2,0c0,1.4,0,3.4,0,4.3
				c-0.3,0.3-0.7,0.4-1,0.4c-0.7,0-1.1-0.4-1.2-1.3c-0.1-0.8,0-2.3,0-3.4c-0.6,0-1.1,0-1.7,0.1c0,0,0,0.1,0,0.2
				c0.4,0.1,0.4,0.3,0.5,0.9c0,0.9,0,1.5,0,2.5s0.5,1.8,1.8,1.8c0.5,0,1.1-0.3,1.6-0.7c0,0.1,0,0.3,0.1,0.5c0.6,0,1.2,0,1.6,0
				C79.4,29.9,79.4,29.8,79.4,29.8z"/>
			<path class="st0" d="M81.9,26.1c0-0.4,0-1,0-1.3c-0.6,0-1.1,0-1.6,0.1c0,0,0,0.1,0,0.1c0.4,0,0.4,0.3,0.5,0.9c0,0.6,0.1,2.2,0,4
				c0.4,0,0.8,0,1.2,0c-0.1-0.7-0.1-1.8-0.1-3.2c0.3-0.7,0.8-1,1.2-1c0.3,0,0.4,0.1,0.5,0.4c0,0,0.1,0,0.2,0c0.1-0.5,0.1-1,0.1-1.4
				C83.2,24.7,82.5,25.2,81.9,26.1z"/>
		</g>
		<g>
			<path class="st0" d="M98.2,29.8c-0.5,0-0.5-0.2-0.6-0.8c0-0.6,0-1.6,0-2.3c0-1.3-0.4-2-1.8-2c-0.5,0-1.2,0.2-2.2,0.5
				c0,0.4,0.1,0.8,0.1,1.2c0.1,0,0.1,0,0.2,0c0.1-0.9,0.7-1.2,1.3-1.2c0.9,0,1.3,0.6,1.3,1.5c-0.9,0.2-1.7,0.4-2.3,0.7
				c-0.8,0.3-1,0.7-1,1.4c0,0.9,0.5,1.4,1.6,1.4c0.5,0,1.2-0.3,1.7-0.8c0,0.2,0.1,0.5,0.1,0.7c0.6,0,1.1,0,1.6,0
				C98.2,29.9,98.2,29.8,98.2,29.8z M95.3,29.5c-0.7,0-1-0.5-1-1.1c0-0.4,0.2-0.8,0.7-1c0.3-0.1,0.9-0.3,1.5-0.5c0,0.6,0,1.4,0,1.9
				C96.1,29.2,95.6,29.5,95.3,29.5z"/>
			<path class="st0" d="M104.6,29.8c-0.5,0-0.5-0.3-0.5-0.7c0-1.1,0-2.1,0-2.8c0-1.1-0.5-1.6-1.6-1.6c-0.5,0-1.2,0.2-1.9,0.7
				c0-0.2,0-0.5,0-0.6c-0.5,0-1.1,0-1.6,0.1c0,0,0,0.1,0,0.2c0.4,0,0.5,0.3,0.5,0.9c0,0.8,0.1,2.7,0,4.1c0.4,0,0.8,0,1.2,0
				c0-1.4,0-3.2,0-4.1c0.4-0.3,0.8-0.6,1.2-0.6c0.7,0,1,0.4,1,1.4c0,0.8,0,2.3,0,3.3c0.6,0,1.2,0,1.8,0
				C104.7,29.9,104.7,29.8,104.6,29.8z"/>
			<path class="st0" d="M111.1,29.8c-0.5,0-0.6-0.3-0.6-0.9c0-0.5-0.1-1.6-0.1-3c0-1.5,0-3,0.1-4.2c-0.5,0-1.2,0.1-1.7,0.2
				c0,0,0,0.1,0,0.2c0.4,0,0.5,0.3,0.5,0.9c0,0.4,0,1.1,0,1.8c-0.3,0-0.6-0.1-0.9-0.1c-1.7,0-2.8,1.3-2.8,2.9c0,1.7,0.9,2.5,2.1,2.5
				c0.5,0,1.1-0.3,1.6-0.6c0,0.2,0.1,0.4,0.1,0.5c0.6,0,1.1,0,1.6,0C111.1,29.9,111.1,29.9,111.1,29.8z M106.8,27.2
				c0-1.3,0.5-2,1.5-2c0.3,0,0.8,0.1,1.1,0.3c0,1.4,0,3,0,3.6c-0.3,0.2-0.7,0.4-1,0.4C107.5,29.4,106.8,28.7,106.8,27.2z"/>
		</g>
		<g>
			<path class="st0" d="M139.8,29.3c-0.3,0.1-0.5,0.2-0.7,0.2c-0.7,0-1-0.5-1-1.2c0-0.6,0-1.1,0-2.2c0-0.2,0-0.5,0-0.8
				c0.5,0,1.1,0,1.5,0c0.1-0.1,0.1-0.3,0.1-0.4c-0.5,0-1,0-1.6,0c0-0.7,0.1-1.4,0.1-1.9c-0.4,0.1-0.8,0.2-1.2,0.3c0,0.6,0,1.1,0,1.6
				c-0.3,0-0.7,0-0.9,0c0,0.2-0.1,0.3-0.1,0.5c0.2,0,0.6,0,1,0c0,0,0,0,0,0c0,1.3,0,2.4,0,3.2c0,0.8,0.4,1.5,1.4,1.5
				c0.5,0,1-0.2,1.5-0.5C139.9,29.5,139.9,29.4,139.8,29.3z"/>
			<path class="st0" d="M130.7,26.1c0-0.4,0-1,0-1.3c-0.6,0-1.1,0-1.6,0.1c0,0,0,0.1,0,0.1c0.4,0,0.4,0.3,0.5,0.9c0,0.6,0.1,2.2,0,4
				c0.4,0,0.8,0,1.2,0c-0.1-0.7-0.1-1.8-0.1-3.2c0.3-0.7,0.8-1,1.2-1c0.3,0,0.4,0.1,0.5,0.4c0,0,0.1,0,0.2,0c0.1-0.5,0.1-1,0.1-1.4
				C131.9,24.7,131.2,25.2,130.7,26.1z"/>
			<path class="st0" d="M117.1,25.4c-1.1-0.9-1.3-1.3-1.2-1.7c0-0.5,0.5-0.9,1.1-0.9c0.4,0,0.7,0,1.1,0.3c0.2,0.2,0.4,0.4,0.5,0.8
				c0,0,0.1,0,0.2,0c0-0.4,0.1-0.9,0.1-1.4c-0.5-0.1-0.9-0.1-1.5-0.1c-1.4,0-2.4,0.7-2.4,2c0,1,0.6,1.6,1.6,2.3c1,0.8,1.5,1.2,1.5,2
				c0,0.4-0.4,1-1.3,1c-0.5,0-1-0.1-1.3-0.4c-0.2-0.2-0.3-0.6-0.4-0.9c0,0-0.1,0-0.2,0c-0.1,0.6-0.1,1.1-0.1,1.5
				c0.5,0.2,1.1,0.3,1.6,0.3c1.8,0,2.6-1,2.6-2.1C118.9,26.9,118.5,26.4,117.1,25.4z"/>
			<path class="st0" d="M123.1,24.7c-0.6,0-1.3,0.3-1.8,0.7c0-0.2,0-0.5,0-0.7c-0.5,0-1.1,0-1.6,0.1c0,0,0,0.1,0,0.2
				c0.3,0,0.5,0.2,0.5,0.7c0.1,0.7,0.1,1.5,0.1,2.8c0,1.1,0,2.9-0.1,4.5c0.4,0,0.8,0,1.2-0.1c0-0.8,0-1.9-0.1-3
				c0.3,0.1,0.7,0.1,1.1,0.1c1.3,0,2.6-1,2.6-3.1C125,25.7,124.5,24.7,123.1,24.7z M122.5,29.7c-0.5,0-0.8-0.1-1.1-0.4
				c0-0.5,0-0.9,0-1.4c0-0.7,0-1.4,0-2c0.3-0.3,0.7-0.5,1.1-0.5c0.9,0,1.4,0.8,1.4,2C123.8,28.8,123.4,29.7,122.5,29.7z"/>
			<g>
				<path class="st0" d="M127,22.1c-0.4,0-0.7,0.3-0.7,0.7c0,0.4,0.3,0.6,0.6,0.6c0.4,0,0.7-0.2,0.7-0.7
					C127.7,22.3,127.4,22.1,127,22.1z"/>
				<path class="st0" d="M127.7,24.8c-0.5,0-1.1,0-1.6,0.1c0,0,0,0.1,0,0.2c0.4,0,0.4,0.4,0.5,1c0,0.9,0,2.7,0,4c0.4,0,0.8,0,1.2,0
					C127.6,28.4,127.6,26.1,127.7,24.8z"/>
			</g>
			<g>
				<path class="st0" d="M134.3,22.1c-0.4,0-0.7,0.3-0.7,0.7c0,0.4,0.3,0.6,0.6,0.6s0.7-0.2,0.7-0.7
					C134.9,22.3,134.7,22.1,134.3,22.1z"/>
				<path class="st0" d="M134.9,24.8c-0.4,0-0.8,0-1.2,0.1c0.1,0.4,0.1,0.8,0.1,1.1c0,0.9,0,2.7,0,4c0.4,0,0.8,0,1.2,0
					C134.8,28.4,134.8,26.1,134.9,24.8z"/>
			</g>
		</g>
		<g>
			<path class="st0" d="M148.3,27.2c0,1.5-0.8,3-2.6,3c-1.7,0-2.8-1-2.8-2.7c0-1.6,1.1-2.8,2.7-2.8
				C147.4,24.7,148.3,25.8,148.3,27.2z M145.4,25.1c-0.7,0-1.3,0.6-1.3,2.1c0.1,1.8,0.7,2.7,1.7,2.6c0.7,0,1.3-0.5,1.2-2.3
				C147,25.9,146.4,25.1,145.4,25.1z"/>
			<path class="st0" d="M152.5,21.8c-1.6,0-2.6,0.9-2.5,2.6c0,0.2,0,0.4,0,0.6c-0.3,0-0.6,0-0.9,0c0,0.2-0.1,0.3-0.1,0.5
				c0.2,0,0.6,0,1,0c0,1.3,0,3,0,4.5c0.4,0,0.8,0,1.2,0c-0.1-1.1-0.1-3-0.1-4.5c0.5,0,1,0,1.5,0c0.1-0.1,0.1-0.3,0.1-0.4
				c-0.5,0-1,0-1.6,0c0-0.6,0-1.1,0.1-1.4c0.1-1.1,0.4-1.5,0.9-1.5c0.5,0,0.7,0.3,0.8,0.9c0.1,0,0.1,0,0.2,0c0-0.4,0.1-0.8,0.1-1.2
				C152.9,21.8,152.7,21.8,152.5,21.8z"/>
		</g>
		<g>
			<path class="st0" d="M164.1,29.8c-0.5,0-0.5-0.2-0.6-0.8c0-0.6,0-1.6,0-2.3c0-1.3-0.4-2-1.8-2c-0.5,0-1.2,0.2-2.2,0.5
				c0,0.4,0.1,0.8,0.1,1.2c0.1,0,0.1,0,0.2,0c0.1-0.9,0.7-1.2,1.3-1.2c0.9,0,1.3,0.6,1.3,1.5c-0.9,0.2-1.7,0.4-2.3,0.7
				c-0.8,0.3-1,0.7-1,1.4c0,0.9,0.5,1.4,1.6,1.4c0.5,0,1.2-0.3,1.7-0.8c0,0.2,0.1,0.5,0.1,0.7c0.6,0,1.1,0,1.6,0
				C164.1,29.9,164.1,29.8,164.1,29.8z M161.3,29.5c-0.7,0-1-0.5-1-1.1c0-0.4,0.2-0.8,0.7-1c0.3-0.1,0.9-0.3,1.5-0.5
				c0,0.6,0,1.4,0,1.9C162,29.2,161.6,29.5,161.3,29.5z"/>
			<path class="st0" d="M176.3,29.8c-0.5,0-0.5-0.2-0.6-0.8c0-0.6,0-1.6,0-2.3c0-1.3-0.4-2-1.8-2c-0.5,0-1.2,0.2-2.2,0.5
				c0,0.4,0.1,0.8,0.1,1.2c0.1,0,0.1,0,0.2,0c0.1-0.9,0.7-1.2,1.3-1.2c0.9,0,1.3,0.6,1.3,1.5c-0.9,0.2-1.7,0.4-2.3,0.7
				c-0.8,0.3-1,0.7-1,1.4c0,0.9,0.5,1.4,1.6,1.4c0.5,0,1.2-0.3,1.7-0.8c0,0.2,0.1,0.5,0.1,0.7c0.6,0,1.1,0,1.6,0
				C176.3,29.9,176.3,29.8,176.3,29.8z M173.5,29.5c-0.7,0-1-0.5-1-1.1c0-0.4,0.2-0.8,0.7-1c0.3-0.1,0.9-0.3,1.5-0.5
				c0,0.6,0,1.4,0,1.9C174.2,29.2,173.8,29.5,173.5,29.5z"/>
			<path class="st0" d="M182.8,29.8c-0.5,0-0.5-0.3-0.5-0.7c0-1.1,0-2.1,0-2.8c0-1.1-0.5-1.6-1.6-1.6c-0.5,0-1.2,0.2-1.9,0.7
				c0-0.2,0-0.5,0-0.6c-0.5,0-1.1,0-1.6,0.1c0,0,0,0.1,0,0.2c0.4,0,0.5,0.3,0.5,0.9c0,0.8,0.1,2.7,0,4.1c0.4,0,0.8,0,1.2,0
				c0-1.4,0-3.2,0-4.1c0.4-0.3,0.8-0.6,1.2-0.6c0.7,0,1,0.4,1,1.4c0,0.8,0,2.3,0,3.3c0.6,0,1.2,0,1.8,0
				C182.8,29.9,182.8,29.8,182.8,29.8z"/>
			<path class="st0" d="M168.3,24.7c-0.6,0-1.3,0.3-1.8,0.7c0-0.2,0-0.5,0-0.7c-0.5,0-1.1,0-1.6,0.1c0,0,0,0.1,0,0.2
				c0.3,0,0.5,0.2,0.5,0.7c0.1,0.7,0.1,1.5,0.1,2.8c0,1.1,0,2.9-0.1,4.5c0.4,0,0.8,0,1.2-0.1c0-0.8,0-1.9-0.1-3
				c0.3,0.1,0.7,0.1,1.1,0.1c1.3,0,2.6-1,2.6-3.1C170.2,25.7,169.6,24.7,168.3,24.7z M167.6,29.7c-0.5,0-0.8-0.1-1.1-0.4
				c0-0.5,0-0.9,0-1.4c0-0.7,0-1.4,0-2c0.3-0.3,0.7-0.5,1.1-0.5c0.9,0,1.4,0.8,1.4,2C169,28.8,168.6,29.7,167.6,29.7z"/>
			<path class="st0" d="M156,22.4c0,0,0,0.1,0,0.2c0.3,0,0.4,0.3,0.4,0.9c0,0.7,0.1,1.7,0.1,2.6c0,0.7,0,1.8-0.1,3.1
				c-0.1,0.8-0.3,1.5-0.6,2c-0.3,0.4-0.6,0.5-0.8,0.6c0,0,0,0.1,0.1,0.1c2.1-0.7,2.6-1.8,2.6-3.3c0-1.1,0-2,0-2.9
				c0-1.2,0-2.5,0.1-3.2C157.1,22.4,156.6,22.4,156,22.4z"/>
		</g>
	</g>
</g>
</svg>
