<svg xmlns="http://www.w3.org/2000/svg" viewBox="0 0 118 115" class="symbol-triman" width="40" height="39" fill="#999"><path d="M30.265 73.655c.71-1.95 1.775-1.827 1.775-1.827s.956-.206 1.486 1.762l7.79 27.331a47.525 47.525 0 0 1-17.454-9.37l6.403-17.896zM54.551.66C24.472.66.001 25.132.001 55.213c0 30.078 24.471 54.551 54.55 54.551 1.61 0 3.193-.102 4.765-.243l.365 5.48 9.976-9.653L58.49 96.83l.421 5.752a47.215 47.215 0 0 1-4.36.227c-2.31 0-4.58-.176-6.806-.497l-.224-1.45-5.179-44.165c-.71-8.336 4.051-9.666 6.991-8.418l16.54 6.645c1.901.818 2.807-.77 2.807-.77s1.071-1.658-.84-2.883c0 0-22.55-14.939-27.356-15.84-6.555-1.228-13.042 4.083-14.49 11.003l-7.999 39.22c-6.888-8.259-11.04-18.873-11.04-30.44 0-26.247 21.351-47.599 47.596-47.599 14.018 0 26.637 6.094 35.354 15.77l4.89-4.957C84.815 7.518 70.47.66 54.551.66z"></path><path d="M68.772 61.401c-5.114 7.536-.769 17.44 4.517 22.463 4.812 4.57 8.676 5.651 9.183 5.778l2.454-4.707 7.098 19.39-20.049 4.077 2.663-4.939-2.71-1.524c-8.443-5.492-10.229-12.969-10.813-15.3-1.003-4.016-2.502-16.03 7.657-25.238"></path><path d="M68.68 61.725c3.646 8.345 14.34 9.956 21.408 8.164 6.264-1.59 9.243-4.174 9.745-4.643l-.025-.05-2.682-4.64 20.17 4.407-7.307 19.109-2.697-4.813-2.639 1.429c-9.153 4.209-16.43 1.729-18.712.978-3.933-1.295-14.895-6.438-17.26-19.941"></path><path d="M104.338 41.581c-1.397 9.975-7.41 14.765-9.277 16.277-3.215 2.612-13.46 9.06-26.105 3.762 8.997 1.44 16.124-6.69 18.434-13.609 2.07-6.2 1.462-10.127 1.347-10.734l-.068-.007-5.356-.233L97.88 22.402l12.177 16.444-5.49-.318-.23 3.053zm-61.175-8.417a8.328 8.328 0 0 1-8.331-8.327 8.331 8.331 0 0 1 16.661 0 8.327 8.327 0 0 1-8.33 8.327"></path></svg>
